<svg version="1.1" id="Layer_1" xmlns="http://www.w3.org/2000/svg" xmlns:xlink="http://www.w3.org/1999/xlink" x="0px" y="0px"
	 width="100%" viewBox="0 0 779 249" enable-background="new 0 0 779 249" xml:space="preserve">
<path fill="#000000" opacity="1.000000" stroke="none" 
	d="
M506.000000,250.000000 
	C337.374207,250.000000 169.248398,250.000000 1.061299,250.000000 
	C1.061299,167.061081 1.061299,84.122093 1.061299,1.091553 
	C260.542480,1.091553 520.085022,1.091553 779.813782,1.091553 
	C779.813782,83.999664 779.813782,166.999786 779.813782,250.000000 
	C688.788696,250.000000 597.644348,250.000000 506.000000,250.000000 
M149.083466,140.532684 
	C149.385498,140.709457 149.687515,140.886230 149.998398,141.000305 
	C149.998398,141.000305 149.936172,141.012009 150.072464,141.541290 
	C150.378220,141.713959 150.683990,141.886627 150.999481,142.000870 
	C150.999481,142.000870 150.945496,142.025269 151.136765,142.627747 
	C152.080322,143.436371 153.023865,144.245010 154.000290,145.003189 
	C154.000290,145.003189 153.941711,145.017029 154.066208,145.547958 
	C154.371597,145.718460 154.677002,145.888962 154.998138,146.000732 
	C154.998138,146.000732 154.946564,146.032959 155.232666,146.745483 
	C161.142731,151.914917 173.416168,148.701569 177.010452,141.007797 
	C177.010452,141.007797 177.027130,141.079300 177.602188,140.885468 
	C178.090912,140.266098 178.579651,139.646744 179.005844,139.002777 
	C179.005844,139.002777 179.009369,139.069885 179.539886,138.924301 
	C179.721146,138.618500 179.902420,138.312714 180.010529,138.006805 
	C180.010529,138.006805 180.026993,138.078094 180.617859,137.843704 
	C180.780579,137.242661 180.943314,136.641602 181.675110,135.818481 
	C182.478867,134.915298 183.282639,134.012100 184.706970,133.033386 
	C185.163712,132.702667 185.620453,132.371964 186.006805,132.006592 
	C186.006805,132.006592 186.038864,132.078201 186.664413,131.866150 
	C188.131027,130.258408 189.597626,128.650681 191.003128,127.000580 
	C191.003128,127.000580 191.042374,127.063667 191.725281,126.820946 
	C192.751587,123.772171 193.777893,120.723404 194.946289,116.968536 
	C195.639725,116.243355 196.333145,115.518166 197.846375,114.942055 
	C202.588577,115.646568 205.897110,113.465927 208.575836,109.574402 
	C208.575836,109.574402 208.691315,109.411148 209.213440,109.147263 
	C210.283386,107.985886 211.353333,106.824509 212.466324,105.551170 
	C212.466324,105.551170 212.541687,105.457855 213.056274,105.287384 
	C213.392181,104.864357 213.728088,104.441322 214.003494,104.002266 
	C214.003494,104.002266 214.019623,104.062729 214.646164,103.814430 
	C218.846390,99.613983 223.107513,95.472267 227.229874,91.196732 
	C231.428040,86.842552 231.489243,82.478470 227.520294,77.568253 
	C227.520294,77.568253 227.411057,77.491951 227.329590,76.950363 
	C226.897858,76.613937 226.466141,76.277504 226.000763,75.993835 
	C226.000763,75.993835 226.062469,75.983421 225.908386,75.467506 
	C225.609558,75.288399 225.310730,75.109291 225.005203,74.995003 
	C225.005203,74.995003 225.064743,74.968552 224.833206,74.384918 
	C223.899155,73.569695 222.965118,72.754471 222.002502,71.995361 
	C222.002502,71.995361 222.065033,71.988075 221.904129,71.473030 
	C221.604889,71.292595 221.305649,71.112167 221.000641,70.998299 
	C221.000641,70.998299 221.067337,70.994194 220.902603,70.478745 
	C220.603363,70.295647 220.304138,70.112549 220.003021,69.995483 
	C220.003021,69.995483 220.067123,69.979507 219.860733,69.415817 
	C219.251205,68.919350 218.641678,68.422882 218.008057,67.990379 
	C218.008057,67.990379 218.076233,67.985718 217.908630,67.471420 
	C217.607666,67.293243 217.306686,67.115074 217.000092,67.000755 
	C217.000092,67.000755 217.063736,66.993195 216.892807,66.484306 
	C216.596222,66.301476 216.299652,66.118637 215.997452,66.000801 
	C215.997452,66.000801 216.062607,65.997719 215.909897,65.476372 
	C215.610748,65.290237 215.311584,65.104103 215.011780,64.988411 
	C215.011780,64.988411 215.079269,64.968201 214.867462,64.406479 
	C214.256058,63.911552 213.644653,63.416622 213.010742,62.987999 
	C213.010742,62.987999 213.080750,62.986073 212.912201,62.469448 
	C212.611084,62.286926 212.309952,62.104404 212.006607,61.993206 
	C212.006607,61.993206 212.077927,61.990612 211.912659,61.471233 
	C211.610580,61.288681 211.308502,61.106125 211.005600,60.991673 
	C211.005600,60.991673 211.071350,60.973869 210.834488,60.378929 
	C210.228134,60.209412 209.621765,60.039890 208.746002,59.250599 
	C205.804779,55.709591 202.196060,52.544739 197.502106,54.255371 
	C193.969147,55.542912 191.090027,58.624622 187.314606,60.988430 
	C186.733368,61.436455 186.152130,61.884476 185.449173,62.442677 
	C185.449173,62.442677 185.335693,62.561321 184.828751,62.810562 
	C184.195923,63.530842 183.563095,64.251122 182.993713,64.994133 
	C182.993713,64.994133 182.970840,64.930725 182.350632,65.191490 
	C178.462418,69.063965 174.660110,73.028534 170.649368,76.769638 
	C168.673798,78.612389 167.528946,80.380493 169.006134,82.967278 
	C169.006134,82.967278 168.959824,82.931602 168.332489,83.267975 
	C168.272751,84.199333 168.213013,85.130692 168.037537,86.513969 
	C168.037537,86.513969 168.129257,86.971375 167.975143,87.614807 
	C167.933960,88.053268 167.892792,88.491722 166.978973,88.996872 
	C164.349930,88.978638 161.720871,88.960403 159.030060,88.143654 
	C160.512390,84.148834 160.032883,80.598770 156.954285,77.421135 
	C150.108200,70.354843 143.465393,63.086533 136.467819,56.175919 
	C134.875259,54.603157 132.178467,54.148548 129.250793,53.022198 
	C128.501938,53.080326 127.753098,53.138454 126.232620,53.071854 
	C123.580437,54.465420 120.507492,55.394833 118.358223,57.343178 
	C112.823700,62.360283 107.935120,68.097595 102.333870,73.031013 
	C97.883827,76.950470 96.070137,81.343376 97.084465,87.697166 
	C97.028702,88.121147 96.972939,88.545128 96.028076,88.993660 
	C93.079559,88.996460 90.131042,88.999260 87.297218,88.288712 
	C87.481789,87.168205 87.666351,86.047691 87.979546,84.167694 
	C87.359192,79.377930 85.127998,75.581970 81.003006,72.999893 
	C81.003006,72.999893 81.072372,72.953423 80.841309,72.338776 
	C79.239357,70.874443 77.637405,69.410103 76.000984,68.000374 
	C76.000984,68.000374 76.053009,67.961418 75.809586,67.336395 
	C72.548988,64.208160 69.288391,61.079929 65.998825,57.998253 
	C65.998825,57.998253 66.052094,57.986206 65.915367,57.464687 
	C65.615692,57.287991 65.316010,57.111294 65.000679,56.998497 
	C65.000679,56.998497 65.064957,56.984486 64.934502,56.455246 
	C64.630966,56.279446 64.327438,56.103645 64.008453,56.001881 
	C64.008453,56.001881 64.065842,55.952171 63.772850,55.252285 
	C57.832584,52.045815 54.179169,52.233101 49.995171,55.998779 
	C49.995171,55.998779 49.985111,55.925602 49.453716,56.066067 
	C49.278515,56.373203 49.103317,56.680340 48.999386,56.995102 
	C48.999386,56.995102 48.965294,56.932045 48.374489,57.146034 
	C47.562702,58.086643 46.750912,59.027256 45.999218,59.999054 
	C45.999218,59.999054 45.968094,59.938923 45.339970,60.139740 
	C43.872265,61.748810 42.404560,63.357880 40.999294,64.998596 
	C40.999294,64.998596 40.966015,64.936966 40.338245,65.176720 
	C37.534653,68.104164 34.731060,71.031609 31.997900,73.998291 
	C31.997900,73.998291 31.958693,73.927856 31.328157,74.187866 
	C29.623249,76.798332 27.918339,79.408791 26.066484,82.798264 
	C26.696669,84.891983 27.326853,86.985703 27.991581,89.000267 
	C27.991581,89.000267 27.913357,89.036934 28.000801,89.735260 
	C35.239372,97.203545 42.446659,104.702843 49.768383,112.088692 
	C50.446915,112.773170 51.852505,112.736900 53.100098,113.545250 
	C53.396465,113.737511 53.692833,113.929771 54.330742,114.768143 
	C56.188271,115.209969 58.045795,115.651794 60.251118,116.745186 
	C61.156693,119.208084 62.062263,121.670990 63.003147,124.823914 
	C65.996613,127.896774 68.990074,130.969635 72.000534,133.999146 
	C72.000534,133.999146 71.954254,134.004669 72.107628,134.517227 
	C72.405441,134.692490 72.703247,134.867737 73.002167,134.999420 
	C73.002167,134.999420 72.959885,135.009644 73.182320,135.616638 
	C74.452927,136.755676 75.723526,137.894730 77.000969,138.999252 
	C77.000969,138.999252 76.966782,139.007339 77.184357,139.645233 
	C79.034348,141.500931 81.060104,143.214294 82.700363,145.239838 
	C87.079880,150.648071 92.528893,149.455658 98.002411,148.002502 
	C98.002411,148.002502 97.988136,148.079865 98.623100,148.008194 
	C99.097214,147.677170 99.571327,147.346146 99.999069,146.999298 
	C99.999069,146.999298 100.002869,147.048172 100.524139,146.909775 
	C100.699341,146.609726 100.874550,146.309662 100.999367,145.998932 
	C100.999367,145.998932 101.005966,146.050003 101.585205,145.893173 
	C101.828598,145.577148 102.071991,145.261139 102.623825,144.865967 
	C102.824799,144.746674 102.927010,144.570145 103.510353,143.965881 
	C104.688210,142.652283 105.866066,141.338684 106.999435,140.000580 
	C106.999435,140.000580 107.026375,140.044189 107.637817,139.837158 
	C108.770142,138.563843 109.902458,137.290543 110.999664,135.999496 
	C110.999664,135.999496 111.009712,136.037506 111.528511,135.906021 
	C111.700226,135.607437 111.871933,135.308868 111.999893,134.999222 
	C111.999893,134.999222 112.017914,135.040466 112.610497,134.830536 
	C113.422440,133.895157 114.234383,132.959778 115.000443,131.999496 
	C115.000443,131.999496 115.014076,132.049774 115.535667,131.915924 
	C115.704895,131.614380 115.874123,131.312836 115.999283,131.000229 
	C115.999283,131.000229 116.021683,131.039993 116.652855,130.799515 
	C119.110413,127.732376 123.498970,125.894936 122.973518,120.474854 
	C122.973518,120.474854 122.999466,120.037216 123.475487,119.883652 
	C123.316917,119.576416 123.158348,119.269180 122.952751,118.519424 
	C122.952751,118.519424 122.785240,118.107147 122.942474,117.456841 
	C122.645180,116.671097 122.347893,115.885361 122.953072,114.997444 
	C126.283241,115.019234 129.613403,115.041023 133.007675,115.932854 
	C133.322769,118.664383 133.637863,121.395912 134.004776,124.809982 
	C134.383057,125.327293 134.761322,125.844604 135.163849,126.652359 
	C135.275726,126.846535 135.441635,126.921005 135.969360,127.413971 
	C136.302902,127.631149 136.636444,127.848328 136.997437,128.005142 
	C136.997437,128.005142 136.931259,128.009338 137.071945,128.541397 
	C137.379089,128.718323 137.686218,128.895264 137.996078,129.002426 
	C137.996078,129.002426 137.926544,129.008972 138.072220,129.538727 
	C138.379196,129.713974 138.686157,129.889221 138.999756,130.000244 
	C138.999756,130.000244 138.935623,130.007599 139.072433,130.537384 
	C139.378143,130.710999 139.683868,130.884613 139.999176,130.999115 
	C139.999176,130.999115 139.940781,131.012405 140.070374,131.543381 
	C140.376511,131.714401 140.682648,131.885437 141.001251,131.999817 
	C141.001251,131.999817 140.944260,132.010513 141.078842,132.536362 
	C141.381851,132.709793 141.684845,132.883209 141.999405,132.999283 
	C141.999405,132.999283 141.942657,133.013535 142.067505,133.546524 
	C142.374161,133.717575 142.680832,133.888611 143.000854,134.000931 
	C143.000854,134.000931 142.941483,134.010925 143.072464,134.542786 
	C143.379105,134.715240 143.685745,134.887711 143.999939,134.999054 
	C143.999939,134.999054 143.939117,135.008850 144.079239,135.535294 
	C144.383270,135.709991 144.687302,135.884674 145.000183,136.000992 
	C145.000183,136.000992 144.945648,136.023575 145.133118,136.628128 
	C146.082443,137.435059 147.031769,138.241989 147.999603,138.997635 
	C147.999603,138.997635 147.945908,139.007095 148.083618,139.531555 
	C148.385666,139.706970 148.687714,139.882370 149.001984,140.000214 
	C149.001984,140.000214 148.943695,140.008255 149.083466,140.532684 
M558.305969,145.790802 
	C558.305969,145.790802 558.289246,145.852448 558.531189,145.430511 
	C558.531189,145.430511 558.132935,145.151306 557.608948,145.023193 
	C557.075562,145.070328 556.542114,145.117462 555.143738,144.997116 
	C553.093018,145.052689 551.042297,145.108246 548.193665,145.019867 
	C542.966675,145.898651 544.857056,149.123138 545.964539,152.778168 
	C545.931641,153.499863 545.898743,154.221542 545.117920,155.395477 
	C545.075989,162.961334 544.966553,170.527664 545.020630,178.092834 
	C545.047668,181.881180 545.411072,182.050415 549.965515,181.014374 
	C554.485962,181.292099 559.563232,183.016449 563.407227,181.536789 
	C570.694153,178.731842 574.915161,173.462448 569.901733,164.407623 
	C569.253296,163.236496 569.046753,161.227722 569.605286,160.078079 
	C573.092590,152.900162 570.868469,146.411774 561.005798,145.524902 
	C560.630310,145.396988 560.254761,145.269073 558.927795,145.056122 
	C558.737366,145.311310 558.546936,145.566498 558.305969,145.790802 
M666.983948,172.067535 
	C666.981628,167.004745 667.077026,161.938324 666.888245,156.882492 
	C666.853638,155.955627 665.664307,155.071869 664.215332,154.007263 
	C663.141296,154.051483 662.067261,154.095703 660.204102,154.009537 
	C660.119812,158.052887 660.035522,162.096237 659.979858,166.969284 
	C659.970886,167.632858 660.199463,168.428650 659.915344,168.939117 
	C657.599487,173.101242 659.061768,177.005508 662.160095,179.348755 
	C665.356201,181.765976 669.321472,184.169083 673.957092,181.145981 
	C675.073425,180.417923 677.267761,181.383133 678.971069,181.503021 
	C680.553284,181.614395 682.231689,181.941513 683.673645,181.516068 
	C684.116821,181.385300 684.000610,179.089600 684.005005,177.784760 
	C684.031311,169.961014 684.018066,162.137115 684.018066,154.177475 
	C682.248230,154.177475 679.829224,154.177475 676.995544,154.177475 
	C676.995544,159.294693 677.421326,164.288971 676.797791,169.148590 
	C676.526917,171.260223 674.349609,173.366211 672.592529,174.993607 
	C669.781799,177.596848 668.341675,174.885559 666.983948,172.067535 
M576.026550,176.667419 
	C576.667664,177.493011 577.308777,178.318588 578.055542,179.606323 
	C578.236145,179.906235 578.501526,180.054214 579.044312,180.558167 
	C579.354187,180.651657 579.664124,180.745163 580.672363,181.149460 
	C583.270691,182.263382 585.671814,183.013885 588.567200,181.333069 
	C590.043579,180.475983 592.645447,180.472137 594.264832,181.174667 
	C597.546997,182.598618 598.954102,181.884842 598.980164,178.421524 
	C599.027649,172.101395 599.233276,165.764740 598.821472,159.471069 
	C598.715027,157.845428 596.879272,155.734222 595.287231,154.911362 
	C589.365112,151.850525 583.567810,152.879333 577.969116,156.208038 
	C580.449280,160.519409 580.449280,160.519409 585.410461,159.259659 
	C590.336182,158.008881 591.874084,159.112900 591.607239,163.292465 
	C587.974487,164.175583 584.466980,165.028244 580.299866,165.997772 
	C579.486084,166.648834 578.672363,167.299896 577.145935,168.278885 
	C576.818481,170.855225 576.491028,173.431564 576.026550,176.667419 
M691.455872,154.073227 
	C691.357117,154.374451 691.258423,154.675659 691.007874,155.906219 
	C691.007874,168.139053 691.007874,180.371887 691.007874,192.800781 
	C693.459167,192.800781 695.521118,192.800781 697.915405,192.800781 
	C697.915405,188.282486 697.915405,183.893021 697.915405,178.803574 
	C702.044983,182.533890 706.346191,183.296890 710.421082,180.744446 
	C714.644958,178.098709 717.637268,174.375488 716.050110,168.703339 
	C715.748840,167.626724 715.858459,166.370392 716.034302,165.236679 
	C716.643738,161.307480 715.383423,158.226105 711.789368,155.260223 
	C706.804626,150.889984 701.285339,154.293991 695.214478,154.003860 
	C694.137268,154.055695 693.059998,154.107529 691.455872,154.073227 
M415.984192,95.497543 
	C415.984192,95.497543 415.785980,95.040817 415.919067,94.292236 
	C414.689423,91.049927 416.663269,91.029114 419.031311,90.968201 
	C427.896637,90.740150 428.564087,89.929390 427.547516,80.949066 
	C423.826477,80.949066 420.052795,80.949066 416.075958,80.949066 
	C416.025208,79.817184 416.063354,79.009460 415.941345,78.226685 
	C415.320557,74.243370 415.115875,70.119415 413.895721,66.324333 
	C412.343842,61.497395 407.383820,63.683044 404.032745,62.479614 
	C403.352722,64.409218 402.100006,66.333626 402.082428,68.269241 
	C401.928284,85.261177 401.995392,102.255112 401.994629,119.248459 
	C401.994080,131.395218 401.992615,131.398178 413.928589,130.961044 
	C414.211639,130.950699 414.484894,130.672043 415.028503,130.371643 
	C415.028503,127.707664 415.028503,124.901329 415.555359,121.956322 
	C415.659668,121.645699 415.763977,121.335075 416.027863,120.096062 
	C415.974670,112.057953 415.921478,104.019836 415.984192,95.497543 
M579.973938,89.904060 
	C580.026978,101.608566 580.079956,113.313080 580.063416,125.561310 
	C580.363831,125.748985 580.664307,125.936661 580.996765,126.898216 
	C581.732422,131.869858 585.010132,134.273193 590.802490,133.981705 
	C596.068970,133.716690 593.335083,129.626236 593.925110,127.172424 
	C594.190369,126.069359 593.971130,124.849884 593.972107,123.683228 
	C593.977173,117.384125 593.973572,117.425293 600.062622,117.965416 
	C601.881470,118.126755 603.732910,118.083153 605.559265,117.969658 
	C615.186096,117.371399 623.022888,110.327080 623.859680,100.355118 
	C624.623108,91.257515 620.784607,83.114777 610.224854,80.074638 
	C602.036621,77.717278 593.822876,79.215172 585.563599,80.650467 
	C580.708374,81.494194 579.660095,83.878983 580.010986,88.495895 
	C580.010986,88.495895 580.132996,88.975586 579.973938,89.904060 
M264.445160,97.991959 
	C263.637909,94.730980 262.911530,91.447281 262.003357,88.214653 
	C260.812897,83.977249 255.469238,80.045357 251.071457,80.020470 
	C246.636032,79.995369 244.677963,83.274170 246.769714,87.243675 
	C247.142227,87.950592 247.741669,88.573540 247.967239,89.316895 
	C251.019241,99.375404 253.870026,109.498276 257.117310,119.492577 
	C258.372894,123.356941 259.737274,127.650070 262.393127,130.496719 
	C267.584381,136.060883 277.647491,132.974243 279.993713,125.638519 
	C281.231384,121.768715 282.436981,117.888649 284.110596,112.572739 
	C286.042389,117.929230 286.994202,122.339767 289.171112,126.026978 
	C290.822479,128.824005 293.694855,131.842606 296.632050,132.714935 
	C300.929291,133.991196 306.116730,132.981369 308.152557,128.286942 
	C314.625214,113.361488 319.822449,97.983910 322.737457,81.986137 
	C314.197479,78.723137 309.457275,81.058914 306.906555,89.288704 
	C304.272736,97.786636 301.577545,106.265533 298.909210,114.752762 
	C296.515472,110.415871 295.373779,105.872536 293.752838,101.507133 
	C291.657898,95.865089 290.781708,90.287079 292.129059,84.288895 
	C292.392548,83.115822 289.897247,80.092133 289.596191,80.213257 
	C286.526520,81.448204 282.915466,82.538261 280.915466,84.903229 
	C278.790070,87.416458 278.152649,91.233475 277.025299,94.535736 
	C274.795258,101.068176 272.675385,107.638206 270.509918,114.192680 
	C270.158203,114.148369 269.806519,114.104057 269.454803,114.059746 
	C267.946167,108.932938 266.437531,103.806137 264.445160,97.991959 
M377.011261,128.318451 
	C376.469025,117.695061 376.374542,107.024590 375.263580,96.461014 
	C374.057922,84.996773 358.756226,76.893639 347.468018,81.271881 
	C346.117676,81.795616 344.867615,82.577820 343.005554,83.529129 
	C343.005554,79.785133 343.461548,76.870438 342.886963,74.175453 
	C342.210785,71.003769 341.404022,67.189743 339.235168,65.202942 
	C337.235260,63.370880 333.345093,62.991085 330.308929,63.051258 
	C326.223389,63.132225 327.404053,67.240028 327.243378,69.418686 
	C326.933350,73.621284 327.951172,77.901787 327.989960,82.153885 
	C328.112823,95.636681 328.078796,109.121460 328.016449,122.605057 
	C327.996582,126.904884 329.465576,130.540207 333.727173,131.482101 
	C336.529602,132.101471 339.713593,130.994400 342.977386,130.632660 
	C342.977386,121.087845 342.930511,111.627747 342.996521,102.168434 
	C343.031281,97.186783 347.316864,91.729889 351.553009,91.015907 
	C355.544189,90.343224 359.775330,93.527924 361.394257,98.964417 
	C362.307220,102.030350 362.806702,105.294891 362.957855,108.495224 
	C363.208893,113.810425 362.667206,119.182663 363.201538,124.455688 
	C363.429291,126.703453 365.407257,130.467880 366.797882,130.564972 
	C370.091095,130.794952 374.127472,133.141373 377.011261,128.318451 
M447.640198,112.993729 
	C452.654358,113.246155 457.721283,114.073601 462.670624,113.619522 
	C470.578064,112.894058 477.743774,104.939537 477.960327,97.633156 
	C478.138306,91.627953 471.969025,84.464478 465.319397,81.912392 
	C459.400848,79.640877 453.363007,79.798218 447.736481,81.381950 
	C443.149628,82.673042 437.838196,85.152893 435.194733,88.804482 
	C429.635742,96.483521 427.934540,105.318634 430.453339,115.220161 
	C434.355194,130.558319 450.014496,135.163223 462.772522,132.133698 
	C464.319092,131.766449 466.102173,132.340836 467.619751,131.918564 
	C469.907562,131.281967 472.251038,130.427994 474.167908,129.089417 
	C474.893494,128.582718 475.113617,125.966431 474.483917,125.204903 
	C473.317627,123.794395 471.409729,122.274437 469.715820,122.155960 
	C464.249298,121.773605 458.738739,122.068314 453.246887,121.986259 
	C448.455597,121.914680 445.575165,117.854027 447.640198,112.993729 
M667.169800,83.070099 
	C661.589417,80.887238 656.182434,79.614487 649.853088,80.789116 
	C639.375183,82.733650 630.467651,89.352242 629.180542,99.396278 
	C628.147888,107.453674 628.095154,115.930061 633.073792,123.079453 
	C635.974854,127.245338 639.828430,130.121475 645.187195,131.683075 
	C653.259521,134.035400 660.833862,132.504700 668.506775,130.875412 
	C670.487427,130.454819 673.610474,128.578598 673.662903,127.269104 
	C673.790466,124.082321 671.867981,121.844162 667.854797,121.938728 
	C662.283936,122.070000 656.698547,121.620407 651.121033,121.380928 
	C650.402893,121.350105 649.339722,121.332031 649.039856,120.894455 
	C647.201843,118.212555 645.537720,115.411476 643.748596,112.542465 
	C650.327087,113.037483 655.902771,113.888786 661.453979,113.751991 
	C666.885559,113.618149 675.119019,106.815918 675.995789,102.658981 
	C677.800415,94.102417 675.005676,87.499939 667.169800,83.070099 
M547.488159,80.989975 
	C544.689026,81.659775 541.884399,82.892784 539.092041,82.865448 
	C535.050537,82.825882 534.334290,85.116394 535.130371,87.907013 
	C535.970276,90.851143 537.956787,93.295952 541.723267,92.751923 
	C545.714600,92.175407 549.687805,91.242577 553.695496,91.064888 
	C559.626221,90.801941 562.489441,94.625473 561.458130,100.913414 
	C558.583923,100.609154 555.699951,100.050125 552.819885,100.069855 
	C549.901855,100.089844 546.995483,100.791794 544.070129,100.999367 
	C538.865173,101.368713 531.720398,106.899498 531.026672,111.327354 
	C528.459045,127.717056 542.786743,135.416824 555.869751,132.040771 
	C558.497559,131.362671 561.115112,130.100586 563.741699,130.089096 
	C567.704712,130.071793 571.671448,130.917694 575.979248,131.438110 
	C575.979248,121.823242 575.978943,113.183022 575.979492,104.542801 
	C575.979614,102.542839 576.265808,100.492439 575.920593,98.554314 
	C575.355530,95.383118 574.641235,92.188751 573.528931,89.174271 
	C570.327698,80.499199 556.677002,78.410416 547.488159,80.989975 
M514.384521,80.984726 
	C513.073242,80.901924 511.731812,80.599495 510.455902,80.774490 
	C505.049194,81.516037 499.031036,81.149956 494.398041,83.489304 
	C484.547028,88.463341 481.426392,97.762459 481.984802,108.470757 
	C482.773834,123.601616 492.210876,132.305435 506.093842,132.786514 
	C512.396912,133.004929 518.774048,131.082794 524.934875,130.159073 
	C525.006714,121.976608 525.005310,121.903328 518.067566,122.037361 
	C515.812256,122.080948 513.541992,122.498039 511.321228,122.952621 
	C506.334564,123.973381 500.999054,121.732666 499.079651,117.180161 
	C495.826447,109.464180 496.320526,101.750557 500.324432,94.422348 
	C501.111053,92.982574 502.912994,91.254044 504.339752,91.165932 
	C508.590973,90.903404 512.886963,91.459511 517.168640,91.555283 
	C519.219421,91.601151 521.733704,92.005219 523.203186,91.011963 
	C524.661682,90.026161 525.239990,87.541496 525.842346,85.601776 
	C526.031738,84.991852 525.212219,83.495338 524.578735,83.300461 
	C521.527405,82.361679 518.381836,81.728981 514.384521,80.984726 
M385.643616,130.140762 
	C388.963470,130.531464 392.283325,130.922165 395.477844,131.298126 
	C396.015198,123.342957 396.797913,116.149994 396.898895,108.947464 
	C396.988617,102.547592 396.233063,96.140152 396.015564,89.730453 
	C395.815765,83.841988 392.880341,81.005653 386.815826,80.994286 
	C384.158325,80.989311 381.720612,80.864967 381.956970,84.717957 
	C382.149506,87.856659 382.008667,91.015999 382.009949,94.166191 
	C382.013947,103.812790 381.840332,113.464912 382.144348,123.101990 
	C382.217377,125.417450 383.872589,127.682991 385.643616,130.140762 
M641.451416,161.010880 
	C640.437683,161.909485 639.423950,162.808105 637.755798,164.286819 
	C637.755798,156.617050 637.755798,149.876053 637.755798,143.329178 
	C635.309998,143.329178 633.248535,143.329178 631.273560,143.329178 
	C631.273560,156.044785 631.273560,168.432922 631.273560,180.733398 
	C633.637390,180.733398 635.714783,180.733398 637.771606,180.733398 
	C637.995667,177.445404 638.201538,174.424942 638.407410,171.404495 
	C639.231873,170.812668 640.056274,170.220856 640.880737,169.629028 
	C641.679321,171.325516 642.319092,173.121292 643.306091,174.700027 
	C646.386047,179.626862 649.927490,183.719482 656.527771,180.544922 
	C654.069519,177.246979 651.868225,173.606018 648.992188,170.613632 
	C645.584717,167.068298 646.843994,164.121094 649.362793,161.197723 
	C651.366638,158.871979 653.720215,156.847534 656.005798,154.603653 
	C648.909607,151.655945 645.764832,156.792603 641.451416,161.010880 
M605.003479,163.931946 
	C605.003418,165.427185 605.110962,166.931488 604.985840,168.416183 
	C604.174133,178.046494 610.980591,182.478317 619.241028,182.005646 
	C625.544922,181.644897 626.432007,180.559158 625.533936,173.891098 
	C621.478577,175.326752 616.731689,178.230881 613.656189,173.648071 
	C612.032837,171.229111 611.998779,166.704330 613.039795,163.765167 
	C614.886230,158.551453 619.904602,159.886597 625.461914,160.726151 
	C625.043945,158.161636 625.218384,154.703064 624.313293,154.392700 
	C616.797729,151.815460 607.165222,153.684006 605.003479,163.931946 
M395.652405,73.849991 
	C395.761932,72.870125 395.845581,71.886559 395.985321,70.911026 
	C396.694519,65.958977 392.886200,63.613392 389.544800,63.391781 
	C387.153015,63.233147 383.799591,66.139244 382.183228,68.553612 
	C380.057861,71.728340 382.452423,74.925903 385.212952,76.498688 
	C388.697754,78.484116 392.435059,78.233673 395.652405,73.849991 
z"/>
<path fill="#EAEBEB" opacity="1.000000" stroke="none" 
	d="
M264.687012,98.335648 
	C266.437531,103.806137 267.946167,108.932938 269.454803,114.059746 
	C269.806519,114.104057 270.158203,114.148369 270.509918,114.192680 
	C272.675385,107.638206 274.795258,101.068176 277.025299,94.535736 
	C278.152649,91.233475 278.790070,87.416458 280.915466,84.903229 
	C282.915466,82.538261 286.526520,81.448204 289.596191,80.213257 
	C289.897247,80.092133 292.392548,83.115822 292.129059,84.288895 
	C290.781708,90.287079 291.657898,95.865089 293.752838,101.507133 
	C295.373779,105.872536 296.515472,110.415871 298.909210,114.752762 
	C301.577545,106.265533 304.272736,97.786636 306.906555,89.288704 
	C309.457275,81.058914 314.197479,78.723137 322.737457,81.986137 
	C319.822449,97.983910 314.625214,113.361488 308.152557,128.286942 
	C306.116730,132.981369 300.929291,133.991196 296.632050,132.714935 
	C293.694855,131.842606 290.822479,128.824005 289.171112,126.026978 
	C286.994202,122.339767 286.042389,117.929230 284.110596,112.572739 
	C282.436981,117.888649 281.231384,121.768715 279.993713,125.638519 
	C277.647491,132.974243 267.584381,136.060883 262.393127,130.496719 
	C259.737274,127.650070 258.372894,123.356941 257.117310,119.492577 
	C253.870026,109.498276 251.019241,99.375404 247.967239,89.316895 
	C247.741669,88.573540 247.142227,87.950592 246.769714,87.243675 
	C244.677963,83.274170 246.636032,79.995369 251.071457,80.020470 
	C255.469238,80.045357 260.812897,83.977249 262.003357,88.214653 
	C262.911530,91.447281 263.637909,94.730980 264.687012,98.335648 
z"/>
<path fill="#8339EA" opacity="1.000000" stroke="none" 
	d="
M187.919861,60.907669 
	C191.090027,58.624622 193.969147,55.542912 197.502106,54.255371 
	C202.196060,52.544739 205.804779,55.709591 209.024139,59.845886 
	C209.891968,60.618740 210.481659,60.796307 211.071350,60.973869 
	C211.071350,60.973869 211.005600,60.991673 211.103485,61.206867 
	C211.493561,61.611580 211.785751,61.801094 212.077927,61.990612 
	C212.077927,61.990612 212.006607,61.993206 212.102005,62.208984 
	C212.491852,62.611870 212.786301,62.798969 213.080750,62.986073 
	C213.080750,62.986073 213.010742,62.987999 213.032166,63.295895 
	C213.728821,64.058594 214.404037,64.513397 215.079269,64.968201 
	C215.079269,64.968201 215.011780,64.988411 215.102554,65.204514 
	C215.483093,65.612984 215.772842,65.805351 216.062607,65.997719 
	C216.062607,65.997719 215.997452,66.000801 216.093216,66.217857 
	C216.480560,66.621010 216.772156,66.807098 217.063736,66.993195 
	C217.063736,66.993195 217.000092,67.000755 217.094345,67.220184 
	C217.484482,67.621643 217.780350,67.803680 218.076233,67.985718 
	C218.076233,67.985718 218.008057,67.990379 218.028351,68.298599 
	C218.721466,69.064384 219.394287,69.521950 220.067123,69.979507 
	C220.067123,69.979507 220.003021,69.995483 220.098862,70.211304 
	C220.485580,70.616150 220.776459,70.805176 221.067337,70.994194 
	C221.067337,70.994194 221.000641,70.998299 221.092743,71.217163 
	C221.478226,71.620033 221.771637,71.804054 222.065033,71.988075 
	C222.065033,71.988075 222.002502,71.995361 221.989655,72.346390 
	C223.006134,73.454468 224.035431,74.211510 225.064743,74.968552 
	C225.064743,74.968552 225.005203,74.995003 225.091049,75.217857 
	C225.472092,75.621613 225.767273,75.802513 226.062469,75.983421 
	C226.062469,75.983421 226.000763,75.993835 226.003876,76.304169 
	C226.475006,76.906990 226.943024,77.199471 227.411057,77.491951 
	C227.411057,77.491951 227.520294,77.568253 227.362839,78.004784 
	C229.083038,84.466354 227.220093,89.010147 222.519684,93.228516 
	C219.155136,96.248024 216.816177,100.410324 214.019623,104.062729 
	C214.019623,104.062729 214.003494,104.002266 213.700821,104.023964 
	C213.112656,104.516396 212.827164,104.987122 212.541687,105.457855 
	C212.541687,105.457855 212.466324,105.551170 212.090912,105.419609 
	C210.707428,106.662415 209.699371,108.036781 208.691315,109.411148 
	C208.691315,109.411148 208.575836,109.574402 208.154968,109.432030 
	C204.175720,110.842316 200.617340,112.394974 196.884659,113.661728 
	C190.712906,107.686241 184.709869,102.002510 178.720932,96.303993 
	C176.492889,94.184006 174.297806,92.029381 172.026550,89.570953 
	C171.063721,88.135246 170.162033,87.019119 169.193298,85.535950 
	C169.070770,84.423141 169.015305,83.677368 168.959824,82.931602 
	C168.959824,82.931602 169.006134,82.967278 169.292511,82.829857 
	C173.083954,78.582184 176.681503,74.545631 180.046219,70.323532 
	C181.300995,68.749001 182.011932,66.741051 182.970856,64.930725 
	C182.970840,64.930725 182.993713,64.994133 183.348587,64.999527 
	C184.247543,64.190392 184.791611,63.375858 185.335693,62.561321 
	C185.335693,62.561321 185.449173,62.442677 185.837433,62.568741 
	C186.790421,62.099094 187.355148,61.503384 187.919861,60.907669 
z"/>
<path fill="#6CB53B" opacity="1.000000" stroke="none" 
	d="
M127.004250,53.196583 
	C127.753098,53.138454 128.501938,53.080326 129.692139,53.425327 
	C132.631714,55.940166 135.299408,57.883934 137.592758,60.198620 
	C142.335388,64.985352 146.493881,70.428841 151.624939,74.728249 
	C155.783936,78.213165 157.653183,81.926933 156.728088,87.298859 
	C155.197815,88.944000 153.914139,90.397827 152.681198,91.893517 
	C150.459427,94.588791 148.268036,97.309128 145.868256,100.296799 
	C143.441650,102.745583 141.210724,104.916573 138.780823,107.182152 
	C138.325119,107.445808 138.153641,107.677895 138.041473,107.987808 
	C138.015533,108.002625 137.975098,108.046623 137.626831,108.070374 
	C135.874969,109.229538 134.517853,110.429070 133.058380,111.487419 
	C129.736130,113.896523 125.946213,114.247215 123.064606,111.455414 
	C114.857178,103.503792 107.014664,95.175514 99.023506,86.569893 
	C98.239014,81.562233 100.262054,78.073647 103.439514,75.102982 
	C111.273697,67.778671 119.146797,60.495998 127.004250,53.196583 
z"/>
<path fill="#FBC003" opacity="1.000000" stroke="none" 
	d="
M184.086395,133.108917 
	C183.282639,134.012100 182.478867,134.915298 181.115707,136.079285 
	C180.379868,136.919418 180.203430,137.498749 180.026993,138.078094 
	C180.026993,138.078094 180.010529,138.006805 179.792755,138.096420 
	C179.386444,138.480652 179.197891,138.775269 179.009369,139.069885 
	C179.009369,139.069885 179.005844,139.002777 178.693176,139.013336 
	C177.929382,139.709030 177.478256,140.394165 177.027130,141.079300 
	C177.027130,141.079300 177.010452,141.007797 176.681549,141.033508 
	C174.510788,142.400024 172.369598,143.473495 170.886322,145.134506 
	C167.249466,149.207153 163.044830,148.496201 158.636169,147.177292 
	C157.402588,146.808258 156.176224,146.415070 154.946564,146.032959 
	C154.946564,146.032959 154.998138,146.000732 154.927551,145.765015 
	C154.551895,145.358536 154.246796,145.187790 153.941711,145.017029 
	C153.941711,145.017029 154.000290,145.003189 154.019348,144.651276 
	C153.007416,143.541336 151.976456,142.783310 150.945496,142.025269 
	C150.945496,142.025269 150.999481,142.000870 150.922607,141.767853 
	C150.542557,141.360565 150.239365,141.186295 149.936172,141.012009 
	C149.936172,141.012009 149.998398,141.000305 149.916534,140.774384 
	C149.537674,140.368393 149.240677,140.188324 148.943695,140.008255 
	C148.943695,140.008255 149.001984,140.000214 148.929535,139.765106 
	C148.553360,139.355682 148.249634,139.181396 147.945908,139.007095 
	C147.945908,139.007095 147.999603,138.997635 148.008545,138.646881 
	C146.993546,137.538589 145.969589,136.781082 144.945648,136.023575 
	C144.945648,136.023575 145.000183,136.000992 144.920898,135.770264 
	C144.540787,135.362640 144.239960,135.185745 143.939117,135.008850 
	C143.939117,135.008850 143.999939,134.999054 143.918381,134.772034 
	C143.538376,134.366974 143.239929,134.188950 142.941483,134.010925 
	C142.941483,134.010925 143.000854,134.000931 142.928238,133.765656 
	C142.551300,133.358109 142.246979,133.185822 141.942657,133.013535 
	C141.942657,133.013535 141.999405,132.999283 141.920395,132.769196 
	C141.542343,132.362915 141.243301,132.186722 140.944260,132.010513 
	C140.944260,132.010513 141.001251,131.999817 140.927643,131.764435 
	C140.549622,131.356842 140.245193,131.184616 139.940781,131.012405 
	C139.940781,131.012405 139.999176,130.999115 139.917023,130.770569 
	C139.535126,130.363876 139.235382,130.185730 138.935623,130.007599 
	C138.935623,130.007599 138.999756,130.000244 138.915390,129.773682 
	C138.529526,129.367737 138.228043,129.188354 137.926544,129.008972 
	C137.926544,129.008972 137.996078,129.002426 137.907410,128.783081 
	C137.522919,128.378952 137.227097,128.194138 136.931259,128.009338 
	C136.931259,128.009338 136.997437,128.005142 137.012939,127.668121 
	C136.046158,125.857155 135.063904,124.383202 134.064499,122.512398 
	C135.010483,119.067352 135.973587,116.019157 136.954559,112.973557 
	C136.972412,112.976135 136.985474,112.942513 137.214294,112.862473 
	C137.734573,112.591248 137.896332,112.322098 137.948425,111.970818 
	C137.968445,111.966652 137.952728,111.928917 138.266052,111.815468 
	C140.841034,109.507812 143.208557,107.410614 145.333954,105.091522 
	C147.371933,102.867836 149.158691,100.413918 151.043396,98.048782 
	C151.030945,98.036385 151.035797,98.044479 151.337234,98.039459 
	C152.077866,97.673325 152.517075,97.312210 152.972870,96.973953 
	C152.989456,96.996826 152.964081,96.952690 153.197693,96.868172 
	C153.726227,96.588387 153.899780,96.315819 153.975128,95.975952 
	C153.998291,95.985970 153.952240,95.955276 154.219177,95.819801 
	C154.681885,95.136963 154.877670,94.589600 155.040009,94.024185 
	C155.006577,94.006142 155.042557,94.073097 155.340607,94.049362 
	C156.071854,93.665451 156.505051,93.305283 156.947189,92.949097 
	C156.956146,92.953072 156.945877,92.918427 157.322266,92.890656 
	C163.415436,89.934464 165.545380,90.374512 170.510025,94.784180 
	C172.768219,96.789917 175.451416,98.317131 177.964661,100.030373 
	C177.987473,99.999336 177.951385,100.063492 178.031906,100.301010 
	C178.393402,100.702988 178.674393,100.867447 178.978729,101.017609 
	C179.002075,101.003319 178.962692,101.042702 178.989746,101.363373 
	C179.653900,102.144592 180.291000,102.605141 180.957275,103.033310 
	C180.986450,103.000923 180.943893,103.076187 181.019150,103.311195 
	C181.280228,103.848618 181.549316,104.021278 181.933044,104.050308 
	C181.964417,104.036415 181.935974,104.098869 182.016632,104.332108 
	C182.296982,104.854713 182.571075,105.022575 183.172089,105.208969 
	C183.925323,105.924538 184.426041,106.500092 185.006287,107.312614 
	C185.275482,107.855804 185.549423,108.027809 185.941559,108.046120 
	C185.975479,108.026634 185.934158,108.093086 186.009476,108.328552 
	C186.277466,108.863953 186.551361,109.029541 186.948029,109.044586 
	C186.989594,109.028389 186.921768,109.086571 186.933502,109.394608 
	C187.377884,110.053665 187.810516,110.404686 188.120667,110.875351 
	C187.998169,110.995003 188.245224,110.759155 188.277802,111.062088 
	C188.831406,111.614037 189.352432,111.863068 189.935211,112.068748 
	C189.996964,112.025406 189.887253,112.129562 189.904373,112.514748 
	C192.440170,117.451424 192.423996,122.203514 191.042374,127.063667 
	C191.042374,127.063667 191.003128,127.000580 190.663361,126.977394 
	C188.895355,128.662201 187.467117,130.370209 186.038864,132.078201 
	C186.038864,132.078201 186.006805,132.006592 185.729950,132.004913 
	C184.997513,132.371811 184.541962,132.740356 184.086395,133.108917 
z"/>
<path fill="#FD5603" opacity="1.000000" stroke="none" 
	d="
M122.785248,118.107147 
	C122.785240,118.107147 122.952751,118.519424 122.976135,119.009628 
	C122.999496,119.678963 122.999481,119.858086 122.999466,120.037216 
	C122.999466,120.037216 122.973518,120.474854 122.623428,120.779297 
	C120.189445,124.402489 118.105560,127.721237 116.021683,131.039993 
	C116.021683,131.039993 115.999283,131.000229 115.744339,131.048752 
	C115.330963,131.414780 115.172516,131.732269 115.014076,132.049774 
	C115.014076,132.049774 115.000443,131.999496 114.648087,131.969055 
	C113.536461,132.972580 112.777184,134.006516 112.017914,135.040466 
	C112.017914,135.040466 111.999893,134.999222 111.742218,135.040680 
	C111.326271,135.400589 111.167992,135.719055 111.009712,136.037506 
	C111.009712,136.037506 110.999664,135.999496 110.640106,135.964508 
	C109.195816,137.301086 108.111099,138.672638 107.026382,140.044189 
	C107.026375,140.044189 106.999435,140.000580 106.634689,139.972427 
	C105.156784,141.408310 104.043617,142.872360 102.930458,144.336395 
	C102.927010,144.570145 102.824799,144.746674 102.157074,144.962570 
	C101.462204,145.389450 101.234077,145.719727 101.005966,146.050003 
	C101.005966,146.050003 100.999367,145.998932 100.759262,146.066864 
	C100.347054,146.439270 100.174965,146.743713 100.002869,147.048172 
	C100.002869,147.048172 99.999069,146.999298 99.704514,146.981522 
	C98.936020,147.335785 98.462082,147.707825 97.988136,148.079865 
	C97.988136,148.079865 98.002411,148.002502 97.581947,148.004364 
	C90.979118,148.978867 86.019386,147.279556 82.223549,141.975800 
	C81.161728,140.492172 78.756020,139.970367 76.966782,139.007339 
	C76.966782,139.007339 77.000969,138.999252 76.997025,138.649017 
	C75.648689,137.202393 74.304283,136.106018 72.959885,135.009644 
	C72.959885,135.009644 73.002167,134.999420 72.925919,134.764099 
	C72.551208,134.354065 72.252731,134.179367 71.954254,134.004669 
	C71.954254,134.004669 72.000534,133.999146 72.027649,133.654221 
	C69.102531,129.812775 66.150314,126.316254 63.148277,122.417816 
	C64.294685,118.957481 65.109901,115.665916 66.797462,112.908165 
	C68.391121,110.303871 70.902016,108.260887 73.321106,105.802429 
	C73.838425,104.623718 74.044083,103.613571 74.320000,102.491745 
	C74.390251,102.380051 74.617859,102.246506 74.940720,102.454514 
	C77.769028,100.668640 80.440559,98.849098 82.749832,96.649269 
	C90.750404,89.027870 92.550270,88.852348 101.117317,95.348389 
	C101.616440,95.726860 102.328621,95.824341 102.951065,96.035324 
	C102.960472,96.018074 102.957283,96.047005 103.042206,96.284744 
	C103.410583,96.682541 103.694031,96.842613 103.985947,97.004326 
	C103.994408,97.005974 103.994507,97.023308 104.020477,97.358810 
	C105.016006,98.509499 105.985558,99.324692 107.052460,100.459518 
	C111.378693,104.890694 115.607590,109.002235 119.880280,113.461411 
	C120.877792,115.241737 121.831520,116.674438 122.785248,118.107147 
z"/>
<path fill="#0B9AF0" opacity="1.000000" stroke="none" 
	d="
M53.989204,114.122025 
	C53.692833,113.929771 53.396465,113.737511 52.972107,112.951324 
	C46.721344,106.192726 40.666100,99.958557 34.435638,93.904709 
	C32.506378,92.030136 30.100836,90.645752 27.913357,89.036934 
	C27.913357,89.036934 27.991581,89.000267 28.006062,88.597725 
	C28.008865,86.132881 27.997189,84.070587 28.035793,81.658089 
	C29.376949,78.847878 30.667820,76.387871 31.958691,73.927856 
	C31.958693,73.927856 31.997900,73.998291 32.331017,74.013168 
	C36.929062,72.365303 40.181419,69.777901 40.966015,64.936966 
	C40.966015,64.936966 40.999294,64.998596 41.345100,65.011658 
	C43.116634,63.329453 44.542366,61.634190 45.968094,59.938923 
	C45.968094,59.938923 45.999218,59.999054 46.347767,60.008354 
	C47.452644,58.989120 48.208969,57.960583 48.965294,56.932045 
	C48.965294,56.932045 48.999386,56.995102 49.221062,56.909241 
	C49.623531,56.524117 49.804325,56.224861 49.985115,55.925606 
	C49.985111,55.925602 49.995171,55.998779 50.353783,56.016548 
	C55.150074,53.817074 59.608379,54.953514 64.065842,55.952171 
	C64.065842,55.952171 64.008453,56.001881 64.083679,56.227364 
	C64.460922,56.630058 64.762939,56.807274 65.064957,56.984486 
	C65.064957,56.984486 65.000679,56.998497 65.079956,57.226196 
	C65.456848,57.631336 65.754471,57.808769 66.052094,57.986206 
	C66.052094,57.986206 65.998825,57.998253 65.995605,58.335854 
	C68.436409,62.754623 70.891846,66.823433 76.053009,67.961418 
	C76.053009,67.961418 76.000984,68.000374 75.994370,68.342712 
	C77.682632,70.107849 79.377502,71.530640 81.072372,72.953423 
	C81.072372,72.953423 81.003006,72.999893 80.984009,73.341827 
	C81.423286,74.705406 81.921600,75.711243 82.332306,76.751663 
	C83.531204,79.788857 84.695107,82.839859 85.621567,86.107132 
	C77.800713,94.310951 70.407379,102.473587 62.544582,110.155724 
	C60.424683,112.226929 56.879921,112.839767 53.989204,114.122025 
z"/>
<path fill="#E9EAEB" opacity="1.000000" stroke="none" 
	d="
M377.012665,128.799683 
	C374.127472,133.141373 370.091095,130.794952 366.797882,130.564972 
	C365.407257,130.467880 363.429291,126.703453 363.201538,124.455688 
	C362.667206,119.182663 363.208893,113.810425 362.957855,108.495224 
	C362.806702,105.294891 362.307220,102.030350 361.394257,98.964417 
	C359.775330,93.527924 355.544189,90.343224 351.553009,91.015907 
	C347.316864,91.729889 343.031281,97.186783 342.996521,102.168434 
	C342.930511,111.627747 342.977386,121.087845 342.977386,130.632660 
	C339.713593,130.994400 336.529602,132.101471 333.727173,131.482101 
	C329.465576,130.540207 327.996582,126.904884 328.016449,122.605057 
	C328.078796,109.121460 328.112823,95.636681 327.989960,82.153885 
	C327.951172,77.901787 326.933350,73.621284 327.243378,69.418686 
	C327.404053,67.240028 326.223389,63.132225 330.308929,63.051258 
	C333.345093,62.991085 337.235260,63.370880 339.235168,65.202942 
	C341.404022,67.189743 342.210785,71.003769 342.886963,74.175453 
	C343.461548,76.870438 343.005554,79.785133 343.005554,83.529129 
	C344.867615,82.577820 346.117676,81.795616 347.468018,81.271881 
	C358.756226,76.893639 374.057922,84.996773 375.263580,96.461014 
	C376.374542,107.024590 376.469025,117.695061 377.012665,128.799683 
z"/>
<path fill="#EAEBEC" opacity="1.000000" stroke="none" 
	d="
M447.216980,113.029915 
	C445.575165,117.854027 448.455597,121.914680 453.246887,121.986259 
	C458.738739,122.068314 464.249298,121.773605 469.715820,122.155960 
	C471.409729,122.274437 473.317627,123.794395 474.483917,125.204903 
	C475.113617,125.966431 474.893494,128.582718 474.167908,129.089417 
	C472.251038,130.427994 469.907562,131.281967 467.619751,131.918564 
	C466.102173,132.340836 464.319092,131.766449 462.772522,132.133698 
	C450.014496,135.163223 434.355194,130.558319 430.453339,115.220161 
	C427.934540,105.318634 429.635742,96.483521 435.194733,88.804482 
	C437.838196,85.152893 443.149628,82.673042 447.736481,81.381950 
	C453.363007,79.798218 459.400848,79.640877 465.319397,81.912392 
	C471.969025,84.464478 478.138306,91.627953 477.960327,97.633156 
	C477.743774,104.939537 470.578064,112.894058 462.670624,113.619522 
	C457.721283,114.073601 452.654358,113.246155 447.216980,113.029915 
M454.407806,103.019302 
	C455.571655,103.007965 457.141022,103.475761 457.824707,102.897118 
	C460.040894,101.021484 461.932220,98.762054 463.948669,96.650459 
	C461.713226,94.762360 459.760712,92.056496 457.180847,91.163994 
	C452.459778,89.530762 445.397308,94.107513 445.302765,101.573532 
	C447.951355,102.039108 450.740295,102.529358 454.407806,103.019302 
z"/>
<path fill="#EAEBEB" opacity="1.000000" stroke="none" 
	d="
M667.514160,83.252716 
	C675.005676,87.499939 677.800415,94.102417 675.995789,102.658981 
	C675.119019,106.815918 666.885559,113.618149 661.453979,113.751991 
	C655.902771,113.888786 650.327087,113.037483 643.748596,112.542465 
	C645.537720,115.411476 647.201843,118.212555 649.039856,120.894455 
	C649.339722,121.332031 650.402893,121.350105 651.121033,121.380928 
	C656.698547,121.620407 662.283936,122.070000 667.854797,121.938728 
	C671.867981,121.844162 673.790466,124.082321 673.662903,127.269104 
	C673.610474,128.578598 670.487427,130.454819 668.506775,130.875412 
	C660.833862,132.504700 653.259521,134.035400 645.187195,131.683075 
	C639.828430,130.121475 635.974854,127.245338 633.073792,123.079453 
	C628.095154,115.930061 628.147888,107.453674 629.180542,99.396278 
	C630.467651,89.352242 639.375183,82.733650 649.853088,80.789116 
	C656.182434,79.614487 661.589417,80.887238 667.514160,83.252716 
M656.172241,90.990555 
	C651.097534,90.164001 647.672729,92.235718 645.621460,96.880760 
	C644.429749,99.579613 643.543091,101.914879 647.998962,102.094505 
	C650.407471,102.191589 652.791443,102.843193 655.201294,102.976410 
	C659.228943,103.199051 662.390869,100.651367 662.567505,97.327370 
	C662.674194,95.319221 658.990601,93.109673 656.172241,90.990555 
z"/>
<path fill="#EAEBEC" opacity="1.000000" stroke="none" 
	d="
M547.938721,80.987717 
	C556.677002,78.410416 570.327698,80.499199 573.528931,89.174271 
	C574.641235,92.188751 575.355530,95.383118 575.920593,98.554314 
	C576.265808,100.492439 575.979614,102.542839 575.979492,104.542801 
	C575.978943,113.183022 575.979248,121.823242 575.979248,131.438110 
	C571.671448,130.917694 567.704712,130.071793 563.741699,130.089096 
	C561.115112,130.100586 558.497559,131.362671 555.869751,132.040771 
	C542.786743,135.416824 528.459045,127.717056 531.026672,111.327354 
	C531.720398,106.899498 538.865173,101.368713 544.070129,100.999367 
	C546.995483,100.791794 549.901855,100.089844 552.819885,100.069855 
	C555.699951,100.050125 558.583923,100.609154 561.458130,100.913414 
	C562.489441,94.625473 559.626221,90.801941 553.695496,91.064888 
	C549.687805,91.242577 545.714600,92.175407 541.723267,92.751923 
	C537.956787,93.295952 535.970276,90.851143 535.130371,87.907013 
	C534.334290,85.116394 535.050537,82.825882 539.092041,82.865448 
	C541.884399,82.892784 544.689026,81.659775 547.938721,80.987717 
M545.924194,111.612282 
	C543.772949,114.615639 543.046448,117.108353 546.404297,120.252861 
	C549.721558,123.359413 553.005127,122.271500 556.065308,121.206947 
	C560.447510,119.682549 562.406860,115.908333 561.838684,111.306206 
	C561.739258,110.500427 559.646118,109.715530 558.352661,109.351723 
	C557.265259,109.045876 555.980713,109.241913 554.820007,109.435349 
	C552.014404,109.902908 549.230164,110.498802 545.924194,111.612282 
z"/>
<path fill="#EAEBEC" opacity="1.000000" stroke="none" 
	d="
M580.132996,125.017586 
	C580.079956,113.313080 580.026978,101.608566 580.203979,89.355255 
	C580.489441,88.706596 580.617004,88.559204 580.587952,88.515190 
	C580.468018,88.333420 580.300598,88.183006 580.150635,88.021042 
	C579.660095,83.878983 580.708374,81.494194 585.563599,80.650467 
	C593.822876,79.215172 602.036621,77.717278 610.224854,80.074638 
	C620.784607,83.114777 624.623108,91.257515 623.859680,100.355118 
	C623.022888,110.327080 615.186096,117.371399 605.559265,117.969658 
	C603.732910,118.083153 601.881470,118.126755 600.062622,117.965416 
	C593.973572,117.425293 593.977173,117.384125 593.972107,123.683228 
	C593.971130,124.849884 594.190369,126.069359 593.925110,127.172424 
	C593.335083,129.626236 596.068970,133.716690 590.802490,133.981705 
	C585.010132,134.273193 581.732422,131.869858 580.898254,126.286652 
	C580.667480,125.364655 580.445251,125.145485 580.132996,125.017586 
M607.965515,102.181915 
	C607.692688,98.674301 608.736877,93.869408 606.848938,91.952705 
	C603.750488,88.807076 598.654480,88.770515 593.969055,90.401787 
	C593.969055,94.967926 593.822998,99.280739 594.064941,103.571678 
	C594.130798,104.739769 595.267090,106.735832 596.079834,106.825142 
	C600.415100,107.301559 604.852783,107.432579 607.965515,102.181915 
z"/>
<path fill="#EAEBEC" opacity="1.000000" stroke="none" 
	d="
M514.827148,80.986198 
	C518.381836,81.728981 521.527405,82.361679 524.578735,83.300461 
	C525.212219,83.495338 526.031738,84.991852 525.842346,85.601776 
	C525.239990,87.541496 524.661682,90.026161 523.203186,91.011963 
	C521.733704,92.005219 519.219421,91.601151 517.168640,91.555283 
	C512.886963,91.459511 508.590973,90.903404 504.339752,91.165932 
	C502.912994,91.254044 501.111053,92.982574 500.324432,94.422348 
	C496.320526,101.750557 495.826447,109.464180 499.079651,117.180161 
	C500.999054,121.732666 506.334564,123.973381 511.321228,122.952621 
	C513.541992,122.498039 515.812256,122.080948 518.067566,122.037361 
	C525.005310,121.903328 525.006714,121.976608 524.934875,130.159073 
	C518.774048,131.082794 512.396912,133.004929 506.093842,132.786514 
	C492.210876,132.305435 482.773834,123.601616 481.984802,108.470757 
	C481.426392,97.762459 484.547028,88.463341 494.398041,83.489304 
	C499.031036,81.149956 505.049194,81.516037 510.455902,80.774490 
	C511.731812,80.599495 513.073242,80.901924 514.827148,80.986198 
z"/>
<path fill="#E9EAEB" opacity="1.000000" stroke="none" 
	d="
M415.028503,122.094986 
	C415.028503,124.901329 415.028503,127.707664 415.028503,130.371643 
	C414.484894,130.672043 414.211639,130.950699 413.928589,130.961044 
	C401.992615,131.398178 401.994080,131.395218 401.994629,119.248459 
	C401.995392,102.255112 401.928284,85.261177 402.082428,68.269241 
	C402.100006,66.333626 403.352722,64.409218 404.032745,62.479614 
	C407.383820,63.683044 412.343842,61.497395 413.895721,66.324333 
	C415.115875,70.119415 415.320557,74.243370 415.941345,78.226685 
	C416.063354,79.009460 416.025208,79.817184 416.075958,80.949066 
	C420.052795,80.949066 423.826477,80.949066 427.547516,80.949066 
	C428.564087,89.929390 427.896637,90.740150 419.031311,90.968201 
	C416.663269,91.029114 414.689423,91.049927 415.719971,94.768311 
	C415.353424,95.591446 415.469238,95.837234 415.868286,95.981728 
	C415.921478,104.019836 415.974670,112.057953 415.747711,120.683220 
	C415.256287,121.510666 415.109924,121.785538 415.028503,122.094986 
z"/>
<path fill="#E9EAEA" opacity="1.000000" stroke="none" 
	d="
M385.221893,130.056122 
	C383.872589,127.682991 382.217377,125.417450 382.144348,123.101990 
	C381.840332,113.464912 382.013947,103.812790 382.009949,94.166191 
	C382.008667,91.015999 382.149506,87.856659 381.956970,84.717957 
	C381.720612,80.864967 384.158325,80.989311 386.815826,80.994286 
	C392.880341,81.005653 395.815765,83.841988 396.015564,89.730453 
	C396.233063,96.140152 396.988617,102.547592 396.898895,108.947464 
	C396.797913,116.149994 396.015198,123.342957 395.477844,131.298126 
	C392.283325,130.922165 388.963470,130.531464 385.221893,130.056122 
z"/>
<path fill="#EEEEEF" opacity="1.000000" stroke="none" 
	d="
M558.132935,145.151321 
	C558.132935,145.151306 558.531189,145.430511 558.641724,145.748901 
	C558.910645,146.097031 559.069153,146.126770 559.227600,146.156509 
	C558.937195,146.044907 558.646851,145.933304 558.356445,145.821701 
	C558.546936,145.566498 558.737366,145.311310 559.683167,145.349075 
	C560.665161,145.747955 560.891724,145.853897 561.118347,145.959854 
	C570.868469,146.411774 573.092590,152.900162 569.605286,160.078079 
	C569.046753,161.227722 569.253296,163.236496 569.901733,164.407623 
	C574.915161,173.462448 570.694153,178.731842 563.407227,181.536789 
	C559.563232,183.016449 554.485962,181.292099 549.279907,180.741333 
	C548.061646,177.995331 547.270447,175.545364 547.047913,173.044800 
	C546.512146,167.023544 546.242737,160.978622 545.865845,154.943237 
	C545.898743,154.221542 545.931641,153.499863 546.199097,152.201569 
	C547.286255,149.471268 548.138916,147.317551 548.991577,145.163818 
	C551.042297,145.108246 553.093018,145.052689 555.644714,145.398010 
	C556.808105,145.583038 557.470520,145.367188 558.132935,145.151321 
M562.281494,152.827179 
	C561.537292,152.593658 560.793030,152.360138 559.867493,151.345230 
	C557.168213,151.244797 554.468994,151.144379 551.769714,151.043961 
	C551.791504,154.197998 551.813293,157.352051 551.835083,160.506104 
	C552.242126,160.295502 552.649170,160.084900 553.914612,159.965271 
	C555.927795,159.939896 557.940979,159.914520 560.316895,160.394531 
	C561.172180,160.221359 562.027527,160.048187 562.882812,159.875031 
	C562.622498,159.463821 562.362122,159.052612 562.301208,158.163834 
	C562.466919,158.115997 562.632690,158.068176 563.551086,157.894028 
	C565.514465,155.973450 566.171204,154.233765 562.281494,152.827179 
M563.997620,171.399643 
	C563.492554,166.386017 561.549438,164.755875 555.898743,166.139191 
	C551.157532,167.299850 553.681213,171.588852 552.808838,175.158020 
	C557.026672,174.351898 561.302124,176.880508 563.997620,171.399643 
z"/>
<path fill="#EEEFF0" opacity="1.000000" stroke="none" 
	d="
M712.123169,155.957581 
	C715.383423,158.226105 716.643738,161.307480 716.034302,165.236679 
	C715.858459,166.370392 715.748840,167.626724 716.050110,168.703339 
	C717.637268,174.375488 714.644958,178.098709 710.421082,180.744446 
	C706.346191,183.296890 702.044983,182.533890 697.915405,178.803574 
	C697.915405,183.893021 697.915405,188.282486 697.915405,192.800781 
	C695.521118,192.800781 693.459167,192.800781 691.007874,192.800781 
	C691.007874,180.371887 691.007874,168.139053 691.261230,155.350204 
	C691.735291,154.630295 691.891418,154.418686 691.982788,154.159363 
	C693.059998,154.107529 694.137268,154.055695 695.611755,154.471466 
	C696.945190,155.878830 697.881287,156.818604 698.817444,157.758362 
	C702.685791,152.969269 707.559387,155.607895 712.123169,155.957581 
M698.344177,170.849930 
	C699.814819,172.547165 701.008972,175.003387 702.853149,175.675201 
	C704.085938,176.124298 707.472839,174.301224 707.746460,173.031693 
	C708.451538,169.760101 708.240417,166.200256 707.865356,162.814270 
	C707.543579,159.909195 704.981262,159.381012 702.730896,160.140900 
	C701.287170,160.628387 699.708191,162.071060 699.139526,163.471252 
	C698.321411,165.486008 698.367188,167.851608 698.344177,170.849930 
z"/>
<path fill="#EEEFF0" opacity="1.000000" stroke="none" 
	d="
M641.713745,160.753815 
	C645.764832,156.792603 648.909607,151.655945 656.005798,154.603653 
	C653.720215,156.847534 651.366638,158.871979 649.362793,161.197723 
	C646.843994,164.121094 645.584717,167.068298 648.992188,170.613632 
	C651.868225,173.606018 654.069519,177.246979 656.527771,180.544922 
	C649.927490,183.719482 646.386047,179.626862 643.306091,174.700027 
	C642.319092,173.121292 641.679321,171.325516 640.880737,169.629028 
	C640.056274,170.220856 639.231873,170.812668 638.407410,171.404495 
	C638.201538,174.424942 637.995667,177.445404 637.771606,180.733398 
	C635.714783,180.733398 633.637390,180.733398 631.273560,180.733398 
	C631.273560,168.432922 631.273560,156.044785 631.273560,143.329178 
	C633.248535,143.329178 635.309998,143.329178 637.755798,143.329178 
	C637.755798,149.876053 637.755798,156.617050 637.755798,164.286819 
	C639.423950,162.808105 640.437683,161.909485 641.713745,160.753815 
z"/>
<path fill="#EEEFF0" opacity="1.000000" stroke="none" 
	d="
M580.959473,165.880890 
	C584.466980,165.028244 587.974487,164.175583 591.607239,163.292465 
	C591.874084,159.112900 590.336182,158.008881 585.410461,159.259659 
	C580.449280,160.519409 580.449280,160.519409 577.969116,156.208038 
	C583.567810,152.879333 589.365112,151.850525 595.287231,154.911362 
	C596.879272,155.734222 598.715027,157.845428 598.821472,159.471069 
	C599.233276,165.764740 599.027649,172.101395 598.980164,178.421524 
	C598.954102,181.884842 597.546997,182.598618 594.264832,181.174667 
	C592.645447,180.472137 590.043579,180.475983 588.567200,181.333069 
	C585.671814,183.013885 583.270691,182.263382 580.186584,180.800415 
	C579.454285,180.240295 579.171204,180.106613 578.851562,180.050278 
	C578.501526,180.054214 578.236145,179.906235 578.015137,179.022858 
	C577.371033,177.628906 576.767273,176.818405 576.163574,176.007919 
	C576.491028,173.431564 576.818481,170.855225 577.873291,168.124329 
	C579.386902,167.273483 580.173157,166.577179 580.959473,165.880890 
M589.862610,175.654953 
	C590.765930,173.667480 591.669189,171.680023 593.156921,168.406738 
	C588.967773,169.076675 586.354553,169.107010 584.134155,170.056335 
	C583.339111,170.396255 582.853394,174.023499 583.329773,174.308914 
	C584.983154,175.299545 587.120972,175.481491 589.862610,175.654953 
z"/>
<path fill="#EEEFF0" opacity="1.000000" stroke="none" 
	d="
M660.993225,154.139923 
	C662.067261,154.095703 663.141296,154.051483 664.610107,154.545334 
	C665.003479,159.720566 664.866699,164.364120 665.084717,168.990952 
	C665.148682,170.348953 666.219421,171.659515 666.828735,172.991837 
	C668.341675,174.885559 669.781799,177.596848 672.592529,174.993607 
	C674.349609,173.366211 676.526917,171.260223 676.797791,169.148590 
	C677.421326,164.288971 676.995544,159.294693 676.995544,154.177475 
	C679.829224,154.177475 682.248230,154.177475 684.018066,154.177475 
	C684.018066,162.137115 684.031311,169.961014 684.005005,177.784760 
	C684.000610,179.089600 684.116821,181.385300 683.673645,181.516068 
	C682.231689,181.941513 680.553284,181.614395 678.971069,181.503021 
	C677.267761,181.383133 675.073425,180.417923 673.957092,181.145981 
	C669.321472,184.169083 665.356201,181.765976 662.160095,179.348755 
	C659.061768,177.005508 657.599487,173.101242 659.915344,168.939117 
	C660.199463,168.428650 659.970886,167.632858 660.030518,166.138306 
	C660.385132,161.584869 660.689209,157.862396 660.993225,154.139923 
z"/>
<path fill="#EEEFF0" opacity="1.000000" stroke="none" 
	d="
M605.003418,163.494186 
	C607.165222,153.684006 616.797729,151.815460 624.313293,154.392700 
	C625.218384,154.703064 625.043945,158.161636 625.461914,160.726151 
	C619.904602,159.886597 614.886230,158.551453 613.039795,163.765167 
	C611.998779,166.704330 612.032837,171.229111 613.656189,173.648071 
	C616.731689,178.230881 621.478577,175.326752 625.533936,173.891098 
	C626.432007,180.559158 625.544922,181.644897 619.241028,182.005646 
	C610.980591,182.478317 604.174133,178.046494 604.985840,168.416183 
	C605.110962,166.931488 605.003418,165.427185 605.003418,163.494186 
z"/>
<path fill="#E9EAEB" opacity="1.000000" stroke="none" 
	d="
M395.362793,74.146896 
	C392.435059,78.233673 388.697754,78.484116 385.212952,76.498688 
	C382.452423,74.925903 380.057861,71.728340 382.183228,68.553612 
	C383.799591,66.139244 387.153015,63.233147 389.544800,63.391781 
	C392.886200,63.613392 396.694519,65.958977 395.985321,70.911026 
	C395.845581,71.886559 395.761932,72.870125 395.362793,74.146896 
z"/>
<path fill="#B1AD56" opacity="1.000000" stroke="none" 
	d="
M119.836479,113.113785 
	C115.607590,109.002235 111.378693,104.890694 107.048492,100.101990 
	C105.962952,98.624321 104.978729,97.823814 103.994507,97.023308 
	C103.994507,97.023308 103.994408,97.005974 103.898102,96.770905 
	C103.590408,96.251785 103.308907,96.088844 102.957283,96.047005 
	C102.957283,96.047005 102.960472,96.018074 102.945686,95.687317 
	C100.926323,93.227402 98.921745,91.098259 96.917175,88.969109 
	C96.972939,88.545128 97.028702,88.121147 97.445885,87.365799 
	C98.214386,87.021446 98.621475,87.008446 99.028557,86.995445 
	C107.014664,95.175514 114.857178,103.503792 123.064606,111.455414 
	C125.946213,114.247215 129.736130,113.896523 133.058380,111.487419 
	C134.517853,110.429070 135.874969,109.229538 137.634247,108.458191 
	C137.977554,109.857819 137.965149,110.893372 137.952728,111.928917 
	C137.952728,111.928917 137.968445,111.966652 137.724518,112.056656 
	C137.197647,112.338577 137.032608,112.603867 136.985474,112.942513 
	C136.985474,112.942513 136.972412,112.976135 136.626801,112.996155 
	C135.168640,113.698387 134.056107,114.380600 132.943573,115.062813 
	C129.613403,115.041023 126.283241,115.019234 122.367828,114.766678 
	C121.133888,114.061874 120.485184,113.587830 119.836479,113.113785 
z"/>
<path fill="#659CC2" opacity="1.000000" stroke="none" 
	d="
M54.159973,114.445084 
	C56.879921,112.839767 60.424683,112.226929 62.544582,110.155724 
	C70.407379,102.473587 77.800713,94.310951 85.896095,86.057480 
	C86.898170,85.499832 87.374542,85.213509 87.850914,84.927185 
	C87.666351,86.047691 87.481789,87.168205 87.070869,88.940536 
	C82.768967,93.810402 78.693413,98.028458 74.617859,102.246506 
	C74.617859,102.246506 74.390251,102.380051 74.106766,102.576675 
	C73.515526,103.109764 73.207764,103.446236 72.618805,103.969200 
	C68.192848,108.135002 64.048088,112.114304 59.903324,116.093613 
	C58.045795,115.651794 56.188271,115.209969 54.159973,114.445084 
z"/>
<path fill="#89B57A" opacity="1.000000" stroke="none" 
	d="
M156.997543,87.126419 
	C157.653183,81.926933 155.783936,78.213165 151.624939,74.728249 
	C146.493881,70.428841 142.335388,64.985352 137.592758,60.198620 
	C135.299408,57.883934 132.631714,55.940166 130.061707,53.503868 
	C132.178467,54.148548 134.875259,54.603157 136.467819,56.175919 
	C143.465393,63.086533 150.108200,70.354843 156.954285,77.421135 
	C160.032883,80.598770 160.512390,84.148834 158.800095,88.603134 
	C158.394318,89.093636 158.218521,89.124657 157.941696,88.883423 
	C157.559616,88.116264 157.278580,87.621338 156.997543,87.126419 
z"/>
<path fill="#A471AE" opacity="1.000000" stroke="none" 
	d="
M184.926773,107.075638 
	C184.426041,106.500092 183.925323,105.924538 183.117950,104.955383 
	C182.519531,104.407478 182.227753,104.253174 181.935974,104.098869 
	C181.935974,104.098869 181.964417,104.036415 181.885071,103.797318 
	C181.518463,103.397537 181.231171,103.236862 180.943893,103.076187 
	C180.943893,103.076187 180.986450,103.000923 180.894989,102.737183 
	C180.189926,101.996529 179.576309,101.519615 178.962692,101.042702 
	C178.962692,101.042702 179.002075,101.003319 178.918488,100.764938 
	C178.540390,100.372200 178.245880,100.217850 177.951385,100.063492 
	C177.951385,100.063492 177.987473,99.999336 177.884064,99.697769 
	C175.461090,96.316971 173.141541,93.237732 171.136627,90.082977 
	C171.663376,89.968491 171.875534,89.929520 172.087692,89.890541 
	C174.297806,92.029381 176.492889,94.184006 178.720932,96.303993 
	C184.709869,102.002510 190.712906,107.686241 196.870605,113.873093 
	C197.030869,114.370338 197.026581,114.792984 197.026581,114.792984 
	C196.333145,115.518166 195.639725,116.243355 194.646088,117.138832 
	C192.859665,115.582603 191.373459,113.856079 189.887253,112.129562 
	C189.887253,112.129562 189.996964,112.025406 189.869171,111.781487 
	C189.242661,111.278099 188.743942,111.018631 188.245224,110.759155 
	C188.245224,110.759155 187.998169,110.995003 188.086243,110.586243 
	C187.756790,109.813850 187.339279,109.450211 186.921768,109.086571 
	C186.921768,109.086571 186.989594,109.028389 186.897400,108.791946 
	C186.514862,108.401360 186.224518,108.247223 185.934158,108.093086 
	C185.934158,108.093086 185.975479,108.026634 185.889847,107.790771 
	C185.511734,107.395149 185.219254,107.235390 184.926773,107.075638 
z"/>
<path fill="#89B470" opacity="1.000000" stroke="none" 
	d="
M99.023506,86.569893 
	C98.621475,87.008446 98.214386,87.021446 97.502380,87.048500 
	C96.070137,81.343376 97.883827,76.950470 102.333870,73.031013 
	C107.935120,68.097595 112.823700,62.360283 118.358223,57.343178 
	C120.507492,55.394833 123.580437,54.465420 126.618439,53.134216 
	C119.146797,60.495998 111.273697,67.778671 103.439514,75.102982 
	C100.262054,78.073647 98.239014,81.562233 99.023506,86.569893 
z"/>
<path fill="#E08B51" opacity="1.000000" stroke="none" 
	d="
M74.940720,102.454514 
	C78.693413,98.028458 82.768967,93.810402 87.013519,89.297211 
	C90.131042,88.999260 93.079559,88.996460 96.472626,88.981384 
	C98.921745,91.098259 100.926323,93.227402 102.936279,95.704567 
	C102.328621,95.824341 101.616440,95.726860 101.117317,95.348389 
	C92.550270,88.852348 90.750404,89.027870 82.749832,96.649269 
	C80.440559,98.849098 77.769028,100.668640 74.940720,102.454514 
z"/>
<path fill="#38A6E0" opacity="1.000000" stroke="none" 
	d="
M27.957079,89.386093 
	C30.100836,90.645752 32.506378,92.030136 34.435638,93.904709 
	C40.666100,99.958557 46.721344,106.192726 52.882309,112.696350 
	C51.852505,112.736900 50.446915,112.773170 49.768383,112.088692 
	C42.446659,104.702843 35.239372,97.203545 27.957079,89.386093 
z"/>
<path fill="#946BD7" opacity="1.000000" stroke="none" 
	d="
M214.332886,103.938583 
	C216.816177,100.410324 219.155136,96.248024 222.519684,93.228516 
	C227.220093,89.010147 229.083038,84.466354 227.416702,78.044006 
	C231.489243,82.478470 231.428040,86.842552 227.229874,91.196732 
	C223.107513,95.472267 218.846390,99.613983 214.332886,103.938583 
z"/>
<path fill="#DEC052" opacity="1.000000" stroke="none" 
	d="
M170.822006,90.158493 
	C173.141541,93.237732 175.461090,96.316971 177.861237,99.728806 
	C175.451416,98.317131 172.768219,96.789917 170.510025,94.784180 
	C165.545380,90.374512 163.415436,89.934464 157.366760,92.563660 
	C157.370819,91.228188 157.706787,90.191933 158.042755,89.155670 
	C158.218521,89.124657 158.394318,89.093636 158.830978,89.002396 
	C161.720871,88.960403 164.349930,88.978638 167.748596,89.030487 
	C168.966980,89.107719 169.415741,89.151337 170.032013,89.347763 
	C170.433029,89.695244 170.640533,89.914551 170.822006,90.158493 
z"/>
<path fill="#F8F9FA" opacity="1.000000" stroke="none" 
	d="
M545.491882,155.169357 
	C546.242737,160.978622 546.512146,167.023544 547.047913,173.044800 
	C547.270447,175.545364 548.061646,177.995331 548.824585,180.792877 
	C545.411072,182.050415 545.047668,181.881180 545.020630,178.092834 
	C544.966553,170.527664 545.075989,162.961334 545.491882,155.169357 
z"/>
<path fill="#946BD7" opacity="1.000000" stroke="none" 
	d="
M182.660736,65.061111 
	C182.011932,66.741051 181.300995,68.749001 180.046219,70.323532 
	C176.681503,74.545631 173.083954,78.582184 169.269974,82.848465 
	C167.528946,80.380493 168.673798,78.612389 170.649368,76.769638 
	C174.660110,73.028534 178.462418,69.063965 182.660736,65.061111 
z"/>
<path fill="#D38864" opacity="1.000000" stroke="none" 
	d="
M60.077221,116.419403 
	C64.048088,112.114304 68.192848,108.135002 72.646545,104.334229 
	C72.973473,104.998840 72.991470,105.484924 73.009460,105.971001 
	C70.902016,108.260887 68.391121,110.303871 66.797462,112.908165 
	C65.109901,115.665916 64.294685,118.957481 63.080807,122.745300 
	C63.031387,123.694427 62.999615,123.914154 62.967834,124.133888 
	C62.062263,121.670990 61.156693,119.208084 60.077221,116.419403 
z"/>
<path fill="#EDC646" opacity="1.000000" stroke="none" 
	d="
M155.089615,146.389221 
	C156.176224,146.415070 157.402588,146.808258 158.636169,147.177292 
	C163.044830,148.496201 167.249466,149.207153 170.886322,145.134506 
	C172.369598,143.473495 174.510788,142.400024 176.717224,141.042175 
	C173.416168,148.701569 161.142731,151.914917 155.089615,146.389221 
z"/>
<path fill="#E3733F" opacity="1.000000" stroke="none" 
	d="
M77.075569,139.326294 
	C78.756020,139.970367 81.161728,140.492172 82.223549,141.975800 
	C86.019386,147.279556 90.979118,148.978867 97.619461,148.016205 
	C92.528893,149.455658 87.079880,150.648071 82.700363,145.239838 
	C81.060104,143.214294 79.034348,141.500931 77.075569,139.326294 
z"/>
<path fill="#F8F9FA" opacity="1.000000" stroke="none" 
	d="
M666.906372,172.529694 
	C666.219421,171.659515 665.148682,170.348953 665.084717,168.990952 
	C664.866699,164.364120 665.003479,159.720566 665.006470,154.625809 
	C665.664307,155.071869 666.853638,155.955627 666.888245,156.882492 
	C667.077026,161.938324 666.981628,167.004745 666.906372,172.529694 
z"/>
<path fill="#F8F9FA" opacity="1.000000" stroke="none" 
	d="
M711.956299,155.608902 
	C707.559387,155.607895 702.685791,152.969269 698.817444,157.758362 
	C697.881287,156.818604 696.945190,155.878830 696.008667,154.557083 
	C701.285339,154.293991 706.804626,150.889984 711.956299,155.608902 
z"/>
<path fill="#DEC052" opacity="1.000000" stroke="none" 
	d="
M189.904373,112.514748 
	C191.373459,113.856079 192.859665,115.582603 194.575027,117.491882 
	C193.777893,120.723404 192.751587,123.772171 191.383820,126.942307 
	C192.423996,122.203514 192.440170,117.451424 189.904373,112.514748 
z"/>
<path fill="#E3733F" opacity="1.000000" stroke="none" 
	d="
M62.985493,124.478897 
	C62.999615,123.914154 63.031387,123.694427 63.130623,123.147217 
	C66.150314,126.316254 69.102531,129.812775 72.019150,133.675903 
	C68.990074,130.969635 65.996613,127.896774 62.985493,124.478897 
z"/>
<path fill="#46AEE7" opacity="1.000000" stroke="none" 
	d="
M87.915230,84.547440 
	C87.374542,85.213509 86.898170,85.499832 86.147263,85.835800 
	C84.695107,82.839859 83.531204,79.788857 82.332306,76.751663 
	C81.921600,75.711243 81.423286,74.705406 81.005203,73.306000 
	C85.127998,75.581970 87.359192,79.377930 87.915230,84.547440 
z"/>
<path fill="#46AEE7" opacity="1.000000" stroke="none" 
	d="
M40.652130,65.056839 
	C40.181419,69.777901 36.929062,72.365303 32.295803,73.993546 
	C34.731060,71.031609 37.534653,68.104164 40.652130,65.056839 
z"/>
<path fill="#46AEE7" opacity="1.000000" stroke="none" 
	d="
M75.931297,67.648911 
	C70.891846,66.823433 68.436409,62.754623 66.010086,58.312576 
	C69.288391,61.079929 72.548988,64.208160 75.931297,67.648911 
z"/>
<path fill="#E98044" opacity="1.000000" stroke="none" 
	d="
M116.337265,130.919754 
	C118.105560,127.721237 120.189445,124.402489 122.611176,120.998154 
	C123.498970,125.894936 119.110413,127.732376 116.337265,130.919754 
z"/>
<path fill="#46AEE7" opacity="1.000000" stroke="none" 
	d="
M63.919346,55.602226 
	C59.608379,54.953514 55.150074,53.817074 50.321793,55.998085 
	C54.179169,52.233101 57.832584,52.045815 63.919346,55.602226 
z"/>
<path fill="#F8F9FA" opacity="1.000000" stroke="none" 
	d="
M660.598633,154.074738 
	C660.689209,157.862396 660.385132,161.584869 660.016235,165.723465 
	C660.035522,162.096237 660.119812,158.052887 660.598633,154.074738 
z"/>
<path fill="#946BD7" opacity="1.000000" stroke="none" 
	d="
M197.436478,114.867523 
	C197.026581,114.792984 197.030869,114.370338 197.044922,114.158981 
	C200.617340,112.394974 204.175720,110.842316 208.073761,109.490372 
	C205.897110,113.465927 202.588577,115.646568 197.436478,114.867523 
z"/>
<path fill="#F8F9FA" opacity="1.000000" stroke="none" 
	d="
M548.592651,145.091843 
	C548.138916,147.317551 547.286255,149.471268 546.153564,151.842300 
	C544.857056,149.123138 542.966675,145.898651 548.592651,145.091843 
z"/>
<path fill="#DEC052" opacity="1.000000" stroke="none" 
	d="
M132.975616,115.497833 
	C134.056107,114.380600 135.168640,113.698387 136.608948,112.993576 
	C135.973587,116.019157 135.010483,119.067352 134.027740,122.816818 
	C133.989731,123.721214 133.971329,123.924324 133.952942,124.127441 
	C133.637863,121.395912 133.322769,118.664383 132.975616,115.497833 
z"/>
<path fill="#46AEE7" opacity="1.000000" stroke="none" 
	d="
M31.643425,74.057861 
	C30.667820,76.387871 29.376949,78.847878 27.740608,81.659622 
	C27.001234,82.013985 26.607330,82.016617 26.213428,82.019249 
	C27.918339,79.408791 29.623249,76.798332 31.643425,74.057861 
z"/>
<path fill="#46AEE7" opacity="1.000000" stroke="none" 
	d="
M45.654030,60.039330 
	C44.542366,61.634190 43.116634,63.329453 41.313881,64.995834 
	C42.404560,63.357880 43.872265,61.748810 45.654030,60.039330 
z"/>
<path fill="#38A6E0" opacity="1.000000" stroke="none" 
	d="
M26.139956,82.408752 
	C26.607330,82.016617 27.001234,82.013985 27.690325,82.009811 
	C27.997189,84.070587 28.008865,86.132881 27.988789,88.637299 
	C27.326853,86.985703 26.696669,84.891983 26.139956,82.408752 
z"/>
<path fill="#46AEE7" opacity="1.000000" stroke="none" 
	d="
M80.956841,72.646103 
	C79.377502,71.530640 77.682632,70.107849 76.011612,68.315414 
	C77.637405,69.410103 79.239357,70.874443 80.956841,72.646103 
z"/>
<path fill="#DEC052" opacity="1.000000" stroke="none" 
	d="
M186.351639,131.972168 
	C187.467117,130.370209 188.895355,128.662201 190.693924,126.998581 
	C189.597626,128.650681 188.131027,130.258408 186.351639,131.972168 
z"/>
<path fill="#946BD7" opacity="1.000000" stroke="none" 
	d="
M208.952377,109.279205 
	C209.699371,108.036781 210.707428,106.662415 212.069382,105.475586 
	C211.353333,106.824509 210.283386,107.985886 208.952377,109.279205 
z"/>
<path fill="#EDC646" opacity="1.000000" stroke="none" 
	d="
M133.978851,124.468712 
	C133.971329,123.924324 133.989731,123.721214 134.044891,123.213676 
	C135.063904,124.383202 136.046158,125.857155 136.999207,127.698303 
	C136.636444,127.848328 136.302902,127.631149 135.785736,127.013725 
	C135.495316,126.442940 135.341141,126.359085 135.139603,126.361916 
	C134.761322,125.844604 134.383057,125.327293 133.978851,124.468712 
z"/>
<path fill="#E98044" opacity="1.000000" stroke="none" 
	d="
M103.220406,144.151138 
	C104.043617,142.872360 105.156784,141.408310 106.656937,139.984680 
	C105.866066,141.338684 104.688210,142.652283 103.220406,144.151138 
z"/>
<path fill="#E98044" opacity="1.000000" stroke="none" 
	d="
M107.332100,139.940674 
	C108.111099,138.672638 109.195816,137.301086 110.657661,135.973389 
	C109.902458,137.290543 108.770142,138.563843 107.332100,139.940674 
z"/>
<path fill="#E98044" opacity="1.000000" stroke="none" 
	d="
M119.880280,113.461411 
	C120.485184,113.587830 121.133888,114.061874 121.916595,114.817764 
	C122.347893,115.885361 122.645180,116.671097 122.863861,117.781998 
	C121.831520,116.674438 120.877792,115.241737 119.880280,113.461411 
z"/>
<path fill="#946BD7" opacity="1.000000" stroke="none" 
	d="
M171.136627,90.082977 
	C170.640533,89.914551 170.433029,89.695244 169.984100,89.054016 
	C169.222214,88.062096 168.675735,87.516739 168.129257,86.971375 
	C168.129257,86.971375 168.037537,86.513969 168.372757,86.251938 
	C168.892105,85.960938 169.076218,85.931961 169.260345,85.902992 
	C170.162033,87.019119 171.063721,88.135246 172.026550,89.570953 
	C171.875534,89.929520 171.663376,89.968491 171.136627,90.082977 
z"/>
<path fill="#E3733F" opacity="1.000000" stroke="none" 
	d="
M73.071106,135.313141 
	C74.304283,136.106018 75.648689,137.202393 76.993607,138.666275 
	C75.723526,137.894730 74.452927,136.755676 73.071106,135.313141 
z"/>
<path fill="#EDC646" opacity="1.000000" stroke="none" 
	d="
M151.041138,142.326508 
	C151.976456,142.783310 153.007416,143.541336 154.002899,144.676514 
	C153.023865,144.245010 152.080322,143.436371 151.041138,142.326508 
z"/>
<path fill="#946BD7" opacity="1.000000" stroke="none" 
	d="
M224.948975,74.676735 
	C224.035431,74.211510 223.006134,73.454468 222.003937,72.318344 
	C222.965118,72.754471 223.899155,73.569695 224.948975,74.676735 
z"/>
<path fill="#EDC646" opacity="1.000000" stroke="none" 
	d="
M145.039383,136.325851 
	C145.969589,136.781082 146.993546,137.538589 147.999298,138.672516 
	C147.031769,138.241989 146.082443,137.435059 145.039383,136.325851 
z"/>
<path fill="#E98044" opacity="1.000000" stroke="none" 
	d="
M112.314209,134.935501 
	C112.777184,134.006516 113.536461,132.972580 114.671036,131.981506 
	C114.234383,132.959778 113.422440,133.895157 112.314209,134.935501 
z"/>
<path fill="#46AEE7" opacity="1.000000" stroke="none" 
	d="
M48.669891,57.039040 
	C48.208969,57.960583 47.452644,58.989120 46.317719,59.992760 
	C46.750912,59.027256 47.562702,58.086643 48.669891,57.039040 
z"/>
<path fill="#F8F9FA" opacity="1.000000" stroke="none" 
	d="
M580.629639,165.939331 
	C580.173157,166.577179 579.386902,167.273483 578.229614,167.960358 
	C578.672363,167.299896 579.486084,166.648834 580.629639,165.939331 
z"/>
<path fill="#F8F9FA" opacity="1.000000" stroke="none" 
	d="
M576.095093,176.337677 
	C576.767273,176.818405 577.371033,177.628906 577.962280,178.791779 
	C577.308777,178.318588 576.667664,177.493011 576.095093,176.337677 
z"/>
<path fill="#946BD7" opacity="1.000000" stroke="none" 
	d="
M185.082214,62.685944 
	C184.791611,63.375858 184.247543,64.190392 183.316864,64.988167 
	C183.563095,64.251122 184.195923,63.530842 185.082214,62.685944 
z"/>
<path fill="#946BD7" opacity="1.000000" stroke="none" 
	d="
M187.617233,60.948051 
	C187.355148,61.503384 186.790421,62.099094 185.898285,62.513653 
	C186.152130,61.884476 186.733368,61.436455 187.617233,60.948051 
z"/>
<path fill="#F8F9FA" opacity="1.000000" stroke="none" 
	d="
M557.870972,145.087265 
	C557.470520,145.367188 556.808105,145.583038 556.077209,145.481750 
	C556.542114,145.117462 557.075562,145.070328 557.870972,145.087265 
z"/>
<path fill="#946BD7" opacity="1.000000" stroke="none" 
	d="
M214.973358,64.687340 
	C214.404037,64.513397 213.728821,64.058594 213.043427,63.262741 
	C213.644653,63.416622 214.256058,63.911552 214.973358,64.687340 
z"/>
<path fill="#A471AE" opacity="1.000000" stroke="none" 
	d="
M169.193298,85.535950 
	C169.076218,85.931961 168.892105,85.960938 168.430634,86.025986 
	C168.213013,85.130692 168.272751,84.199333 168.646149,83.099792 
	C169.015305,83.677368 169.070770,84.423141 169.193298,85.535950 
z"/>
<path fill="#946BD7" opacity="1.000000" stroke="none" 
	d="
M219.963928,69.697662 
	C219.394287,69.521950 218.721466,69.064384 218.040405,68.266617 
	C218.641678,68.422882 219.251205,68.919350 219.963928,69.697662 
z"/>
<path fill="#EDC646" opacity="1.000000" stroke="none" 
	d="
M177.314667,140.982391 
	C177.478256,140.394165 177.929382,139.709030 178.724426,139.025635 
	C178.579651,139.646744 178.090912,140.266098 177.314667,140.982391 
z"/>
<path fill="#A471AE" opacity="1.000000" stroke="none" 
	d="
M168.052200,87.293091 
	C168.675735,87.516739 169.222214,88.062096 169.816605,88.901199 
	C169.415741,89.151337 168.966980,89.107719 168.184906,88.997147 
	C167.892792,88.491722 167.933960,88.053268 168.052200,87.293091 
z"/>
<path fill="#EDC646" opacity="1.000000" stroke="none" 
	d="
M180.322418,137.960907 
	C180.203430,137.498749 180.379868,136.919418 180.831177,136.190308 
	C180.943314,136.641602 180.780579,137.242661 180.322418,137.960907 
z"/>
<path fill="#DEC052" opacity="1.000000" stroke="none" 
	d="
M184.396683,133.071152 
	C184.541962,132.740356 184.997513,132.371811 185.765137,132.022247 
	C185.620453,132.371964 185.163712,132.702667 184.396683,133.071152 
z"/>
<path fill="#E98044" opacity="1.000000" stroke="none" 
	d="
M98.305618,148.044037 
	C98.462082,147.707825 98.936020,147.335785 99.727692,146.989441 
	C99.571327,147.346146 99.097214,147.677170 98.305618,148.044037 
z"/>
<path fill="#946BD7" opacity="1.000000" stroke="none" 
	d="
M212.798981,105.372620 
	C212.827164,104.987122 213.112656,104.516396 213.731079,104.031975 
	C213.728088,104.441322 213.392181,104.864357 212.798981,105.372620 
z"/>
<path fill="#946BD7" opacity="1.000000" stroke="none" 
	d="
M227.370331,77.221161 
	C226.943024,77.199471 226.475006,76.906990 226.020691,76.277786 
	C226.466141,76.277504 226.897858,76.613937 227.370331,77.221161 
z"/>
<path fill="#946BD7" opacity="1.000000" stroke="none" 
	d="
M210.952911,60.676399 
	C210.481659,60.796307 209.891968,60.618740 209.158844,60.155773 
	C209.621765,60.039890 210.228134,60.209412 210.952911,60.676399 
z"/>
<path fill="#F8F9FA" opacity="1.000000" stroke="none" 
	d="
M578.947937,180.304230 
	C579.171204,180.106613 579.454285,180.240295 579.837402,180.645020 
	C579.664124,180.745163 579.354187,180.651657 578.947937,180.304230 
z"/>
<path fill="#946BD7" opacity="1.000000" stroke="none" 
	d="
M221.984589,71.730553 
	C221.771637,71.804054 221.478226,71.620033 221.095612,71.183876 
	C221.305649,71.112167 221.604889,71.292595 221.984589,71.730553 
z"/>
<path fill="#E98044" opacity="1.000000" stroke="none" 
	d="
M101.295578,145.971588 
	C101.234077,145.719727 101.462204,145.389450 102.002853,145.002151 
	C102.071991,145.261139 101.828598,145.577148 101.295578,145.971588 
z"/>
<path fill="#946BD7" opacity="1.000000" stroke="none" 
	d="
M225.985428,75.725464 
	C225.767273,75.802513 225.472092,75.621613 225.094391,75.185448 
	C225.310730,75.109291 225.609558,75.288399 225.985428,75.725464 
z"/>
<path fill="#EDC646" opacity="1.000000" stroke="none" 
	d="
M154.003967,145.282501 
	C154.246796,145.187790 154.551895,145.358536 154.919678,145.794373 
	C154.677002,145.888962 154.371597,145.718460 154.003967,145.282501 
z"/>
<path fill="#46AEE7" opacity="1.000000" stroke="none" 
	d="
M49.719414,55.995834 
	C49.804325,56.224861 49.623531,56.524117 49.185429,56.905426 
	C49.103317,56.680340 49.278515,56.373203 49.719414,55.995834 
z"/>
<path fill="#46AEE7" opacity="1.000000" stroke="none" 
	d="
M65.983734,57.725449 
	C65.754471,57.808769 65.456848,57.631336 65.087784,57.194252 
	C65.316010,57.111294 65.615692,57.287991 65.983734,57.725449 
z"/>
<path fill="#F8F9FA" opacity="1.000000" stroke="none" 
	d="
M691.719360,154.116302 
	C691.891418,154.418686 691.735291,154.630295 691.337158,154.885529 
	C691.258423,154.675659 691.357117,154.374451 691.719360,154.116302 
z"/>
<path fill="#F8F9FA" opacity="1.000000" stroke="none" 
	d="
M561.062073,145.742371 
	C560.891724,145.853897 560.665161,145.747955 560.158936,145.391602 
	C560.254761,145.269073 560.630310,145.396988 561.062073,145.742371 
z"/>
<path fill="#46AEE7" opacity="1.000000" stroke="none" 
	d="
M64.999725,56.719864 
	C64.762939,56.807274 64.460922,56.630058 64.091408,56.190346 
	C64.327438,56.103645 64.630966,56.279446 64.999725,56.719864 
z"/>
<path fill="#E98044" opacity="1.000000" stroke="none" 
	d="
M100.263504,146.978973 
	C100.174965,146.743713 100.347054,146.439270 100.784454,146.072205 
	C100.874550,146.309662 100.699341,146.609726 100.263504,146.978973 
z"/>
<path fill="#F8F9FA" opacity="1.000000" stroke="none" 
	d="
M558.331177,145.806244 
	C558.646851,145.933304 558.937195,146.044907 559.227600,146.156509 
	C559.069153,146.126770 558.910645,146.097031 558.520752,145.959869 
	C558.289246,145.852448 558.305969,145.790802 558.331177,145.806244 
z"/>
<path fill="#946BD7" opacity="1.000000" stroke="none" 
	d="
M220.984970,70.736465 
	C220.776459,70.805176 220.485580,70.616150 220.099792,70.178291 
	C220.304138,70.112549 220.603363,70.295647 220.984970,70.736465 
z"/>
<path fill="#946BD7" opacity="1.000000" stroke="none" 
	d="
M211.995300,61.730923 
	C211.785751,61.801094 211.493561,61.611580 211.103912,61.172813 
	C211.308502,61.106125 211.610580,61.288681 211.995300,61.730923 
z"/>
<path fill="#946BD7" opacity="1.000000" stroke="none" 
	d="
M215.986252,65.737045 
	C215.772842,65.805351 215.483093,65.612984 215.102875,65.169296 
	C215.311584,65.104103 215.610748,65.290237 215.986252,65.737045 
z"/>
<path fill="#946BD7" opacity="1.000000" stroke="none" 
	d="
M217.992432,67.728569 
	C217.780350,67.803680 217.484482,67.621643 217.097168,67.188263 
	C217.306686,67.115074 217.607666,67.293243 217.992432,67.728569 
z"/>
<path fill="#946BD7" opacity="1.000000" stroke="none" 
	d="
M216.978271,66.738754 
	C216.772156,66.807098 216.480560,66.621010 216.096024,66.185364 
	C216.299652,66.118637 216.596222,66.301476 216.978271,66.738754 
z"/>
<path fill="#FBC003" opacity="1.000000" stroke="none" 
	d="
M135.151733,126.507141 
	C135.341141,126.359085 135.495316,126.442940 135.631866,126.744621 
	C135.441635,126.921005 135.275726,126.846535 135.151733,126.507141 
z"/>
<path fill="#F8F9FA" opacity="1.000000" stroke="none" 
	d="
M415.926239,95.739639 
	C415.469238,95.837234 415.353424,95.591446 415.653442,95.142593 
	C415.785980,95.040817 415.984192,95.497543 415.926239,95.739639 
z"/>
<path fill="#946BD7" opacity="1.000000" stroke="none" 
	d="
M212.996475,62.727760 
	C212.786301,62.798969 212.491852,62.611870 212.103119,62.173325 
	C212.309952,62.104404 212.611084,62.286926 212.996475,62.727760 
z"/>
<path fill="#E98044" opacity="1.000000" stroke="none" 
	d="
M123.237473,119.960434 
	C122.999481,119.858086 122.999496,119.678963 122.999649,119.230896 
	C123.158348,119.269180 123.316917,119.576416 123.237473,119.960434 
z"/>
<path fill="#F8F9FA" opacity="1.000000" stroke="none" 
	d="
M580.080811,88.258469 
	C580.300598,88.183006 580.468018,88.333420 580.587952,88.515190 
	C580.617004,88.559204 580.489441,88.706596 580.283447,88.891022 
	C580.132996,88.975586 580.010986,88.495895 580.080811,88.258469 
z"/>
<path fill="#F8F9FA" opacity="1.000000" stroke="none" 
	d="
M415.291931,122.025650 
	C415.109924,121.785538 415.256287,121.510666 415.667908,121.147415 
	C415.763977,121.335075 415.659668,121.645699 415.291931,122.025650 
z"/>
<path fill="#F8F9FA" opacity="1.000000" stroke="none" 
	d="
M580.098206,125.289444 
	C580.445251,125.145485 580.667480,125.364655 580.882202,125.899712 
	C580.664307,125.936661 580.363831,125.748985 580.098206,125.289444 
z"/>
<path fill="#EDC646" opacity="1.000000" stroke="none" 
	d="
M150.004318,141.276642 
	C150.239365,141.186295 150.542557,141.360565 150.917755,141.797073 
	C150.683990,141.886627 150.378220,141.713959 150.004318,141.276642 
z"/>
<path fill="#EDC646" opacity="1.000000" stroke="none" 
	d="
M137.001602,128.275360 
	C137.227097,128.194138 137.522919,128.378952 137.906067,128.817963 
	C137.686218,128.895264 137.379089,128.718323 137.001602,128.275360 
z"/>
<path fill="#EDC646" opacity="1.000000" stroke="none" 
	d="
M137.999390,129.273849 
	C138.228043,129.188354 138.529526,129.367737 138.912079,129.805786 
	C138.686157,129.889221 138.379196,129.713974 137.999390,129.273849 
z"/>
<path fill="#EDC646" opacity="1.000000" stroke="none" 
	d="
M139.004028,130.272491 
	C139.235382,130.185730 139.535126,130.363876 139.912231,130.800125 
	C139.683868,130.884613 139.378143,130.710999 139.004028,130.272491 
z"/>
<path fill="#E98044" opacity="1.000000" stroke="none" 
	d="
M115.274872,131.982849 
	C115.172516,131.732269 115.330963,131.414780 115.766373,131.054291 
	C115.874123,131.312836 115.704895,131.614380 115.274872,131.982849 
z"/>
<path fill="#EDC646" opacity="1.000000" stroke="none" 
	d="
M140.005585,131.277893 
	C140.245193,131.184616 140.549622,131.356842 140.921417,131.792755 
	C140.682648,131.885437 140.376511,131.714401 140.005585,131.277893 
z"/>
<path fill="#EDC646" opacity="1.000000" stroke="none" 
	d="
M141.011551,132.273438 
	C141.243301,132.186722 141.542343,132.362915 141.914612,132.797882 
	C141.684845,132.883209 141.381851,132.709793 141.011551,132.273438 
z"/>
<path fill="#EDC646" opacity="1.000000" stroke="none" 
	d="
M142.005081,133.280029 
	C142.246979,133.185822 142.551300,133.358109 142.921555,133.795029 
	C142.680832,133.888611 142.374161,133.717575 142.005081,133.280029 
z"/>
<path fill="#E3733F" opacity="1.000000" stroke="none" 
	d="
M72.030945,134.260956 
	C72.252731,134.179367 72.551208,134.354065 72.925369,134.785889 
	C72.703247,134.867737 72.405441,134.692490 72.030945,134.260956 
z"/>
<path fill="#EDC646" opacity="1.000000" stroke="none" 
	d="
M143.006973,134.276855 
	C143.239929,134.188950 143.538376,134.366974 143.914612,134.802582 
	C143.685745,134.887711 143.379105,134.715240 143.006973,134.276855 
z"/>
<path fill="#E98044" opacity="1.000000" stroke="none" 
	d="
M111.269112,135.971771 
	C111.167992,135.719055 111.326271,135.400589 111.764099,135.046219 
	C111.871933,135.308868 111.700226,135.607437 111.269112,135.971771 
z"/>
<path fill="#EDC646" opacity="1.000000" stroke="none" 
	d="
M144.009186,135.272064 
	C144.239960,135.185745 144.540787,135.362640 144.916473,135.799454 
	C144.687302,135.884674 144.383270,135.709991 144.009186,135.272064 
z"/>
<path fill="#EDC646" opacity="1.000000" stroke="none" 
	d="
M179.274628,138.997086 
	C179.197891,138.775269 179.386444,138.480652 179.829346,138.096481 
	C179.902420,138.312714 179.721146,138.618500 179.274628,138.997086 
z"/>
<path fill="#EDC646" opacity="1.000000" stroke="none" 
	d="
M148.014771,139.269318 
	C148.249634,139.181396 148.553360,139.355682 148.923431,139.793884 
	C148.687714,139.882370 148.385666,139.706970 148.014771,139.269318 
z"/>
<path fill="#EDC646" opacity="1.000000" stroke="none" 
	d="
M149.013580,140.270477 
	C149.240677,140.188324 149.537674,140.368393 149.912109,140.805725 
	C149.687515,140.886230 149.385498,140.709457 149.013580,140.270477 
z"/>
<path fill="#DEC052" opacity="1.000000" stroke="none" 
	d="
M138.266052,111.815468 
	C137.965149,110.893372 137.977554,109.857819 137.982529,108.434448 
	C137.975098,108.046623 138.015533,108.002625 138.251877,107.910400 
	C138.751541,107.641579 138.915405,107.398041 138.979797,107.087555 
	C141.210724,104.916573 143.441650,102.745583 146.214615,100.289207 
	C148.189728,99.356270 149.622787,98.708717 151.055847,98.061172 
	C149.158691,100.413918 147.371933,102.867836 145.333954,105.091522 
	C143.208557,107.410614 140.841034,109.507812 138.266052,111.815468 
z"/>
<path fill="#B1AD56" opacity="1.000000" stroke="none" 
	d="
M151.043396,98.048775 
	C149.622787,98.708717 148.189728,99.356270 146.410309,100.011414 
	C148.268036,97.309128 150.459427,94.588791 152.681198,91.893517 
	C153.914139,90.397827 155.197815,88.944000 156.728088,87.298859 
	C157.278580,87.621338 157.559616,88.116264 157.941711,88.883423 
	C157.706787,90.191933 157.370819,91.228188 156.990372,92.591431 
	C156.945877,92.918427 156.956146,92.953072 156.652222,92.978271 
	C155.913040,93.360008 155.477798,93.716553 155.042557,94.073097 
	C155.042557,94.073097 155.006577,94.006142 154.773254,94.161407 
	C154.344055,94.862877 154.148148,95.409081 153.952240,95.955276 
	C153.952240,95.955276 153.998291,95.985970 153.752396,96.074463 
	C153.227753,96.358917 153.046951,96.622162 152.964081,96.952690 
	C152.964081,96.952690 152.989456,96.996826 152.674423,96.994125 
	C151.918198,97.342445 151.477005,97.693466 151.035797,98.044479 
	C151.035797,98.044479 151.030945,98.036385 151.043396,98.048775 
z"/>
<path fill="#B1AD56" opacity="1.000000" stroke="none" 
	d="
M138.780823,107.182152 
	C138.915405,107.398041 138.751541,107.641579 138.277832,107.895584 
	C138.153641,107.677895 138.325119,107.445808 138.780823,107.182152 
z"/>
<path fill="#DEC052" opacity="1.000000" stroke="none" 
	d="
M178.989746,101.363373 
	C179.576309,101.519615 180.189926,101.996529 180.865829,102.769577 
	C180.291000,102.605141 179.653900,102.144592 178.989746,101.363373 
z"/>
<path fill="#DEC052" opacity="1.000000" stroke="none" 
	d="
M155.340607,94.049362 
	C155.477798,93.716553 155.913040,93.360008 156.643250,92.974289 
	C156.505051,93.305283 156.071854,93.665451 155.340607,94.049362 
z"/>
<path fill="#DEC052" opacity="1.000000" stroke="none" 
	d="
M154.219177,95.819801 
	C154.148148,95.409081 154.344055,94.862877 154.806702,94.179451 
	C154.877670,94.589600 154.681885,95.136963 154.219177,95.819801 
z"/>
<path fill="#DEC052" opacity="1.000000" stroke="none" 
	d="
M151.337234,98.039467 
	C151.477005,97.693466 151.918198,97.342445 152.657837,96.971252 
	C152.517075,97.312210 152.077866,97.673325 151.337234,98.039467 
z"/>
<path fill="#DEC052" opacity="1.000000" stroke="none" 
	d="
M186.933502,109.394608 
	C187.339279,109.450211 187.756790,109.813850 188.208725,110.466599 
	C187.810516,110.404686 187.377884,110.053665 186.933502,109.394608 
z"/>
<path fill="#DEC052" opacity="1.000000" stroke="none" 
	d="
M188.277802,111.062088 
	C188.743942,111.018631 189.242661,111.278099 189.807434,111.824829 
	C189.352432,111.863068 188.831406,111.614037 188.277802,111.062088 
z"/>
<path fill="#DEC052" opacity="1.000000" stroke="none" 
	d="
M153.197693,96.868172 
	C153.046951,96.622162 153.227753,96.358917 153.729218,96.064453 
	C153.899780,96.315819 153.726227,96.588387 153.197693,96.868172 
z"/>
<path fill="#DEC052" opacity="1.000000" stroke="none" 
	d="
M178.031906,100.301010 
	C178.245880,100.217850 178.540390,100.372200 178.895126,100.779228 
	C178.674393,100.867447 178.393402,100.702988 178.031906,100.301010 
z"/>
<path fill="#DEC052" opacity="1.000000" stroke="none" 
	d="
M181.019150,103.311195 
	C181.231171,103.236862 181.518463,103.397537 181.853699,103.811203 
	C181.549316,104.021278 181.280228,103.848618 181.019150,103.311195 
z"/>
<path fill="#DEC052" opacity="1.000000" stroke="none" 
	d="
M182.016632,104.332108 
	C182.227753,104.253174 182.519531,104.407478 182.865448,104.815369 
	C182.571075,105.022575 182.296982,104.854713 182.016632,104.332108 
z"/>
<path fill="#DEC052" opacity="1.000000" stroke="none" 
	d="
M185.006287,107.312607 
	C185.219254,107.235390 185.511734,107.395149 185.855927,107.810257 
	C185.549423,108.027809 185.275482,107.855804 185.006287,107.312607 
z"/>
<path fill="#DEC052" opacity="1.000000" stroke="none" 
	d="
M186.009476,108.328552 
	C186.224518,108.247223 186.514862,108.401360 186.855850,108.808144 
	C186.551361,109.029541 186.277466,108.863953 186.009476,108.328552 
z"/>
<path fill="#DEC052" opacity="1.000000" stroke="none" 
	d="
M137.214294,112.862473 
	C137.032608,112.603867 137.197647,112.338577 137.704498,112.060822 
	C137.896332,112.322098 137.734573,112.591248 137.214294,112.862473 
z"/>
<path fill="#E08B51" opacity="1.000000" stroke="none" 
	d="
M104.020477,97.358810 
	C104.978729,97.823814 105.962952,98.624321 106.951141,99.782356 
	C105.985558,99.324692 105.016006,98.509499 104.020477,97.358810 
z"/>
<path fill="#E08B51" opacity="1.000000" stroke="none" 
	d="
M73.321106,105.802429 
	C72.991470,105.484924 72.973473,104.998840 72.927734,104.147736 
	C73.207764,103.446236 73.515526,103.109764 74.036514,102.688370 
	C74.044083,103.613571 73.838425,104.623718 73.321106,105.802429 
z"/>
<path fill="#E08B51" opacity="1.000000" stroke="none" 
	d="
M103.042206,96.284744 
	C103.308907,96.088844 103.590408,96.251785 103.889641,96.769257 
	C103.694031,96.842613 103.410583,96.682541 103.042206,96.284744 
z"/>
<path fill="#000000" opacity="1.000000" stroke="none" 
	d="
M453.968506,103.019455 
	C450.740295,102.529358 447.951355,102.039108 445.302765,101.573532 
	C445.397308,94.107513 452.459778,89.530762 457.180847,91.163994 
	C459.760712,92.056496 461.713226,94.762360 463.948669,96.650452 
	C461.932220,98.762054 460.040894,101.021484 457.824707,102.897118 
	C457.141022,103.475761 455.571655,103.007965 453.968506,103.019455 
z"/>
<path fill="#000000" opacity="1.000000" stroke="none" 
	d="
M656.591187,90.990585 
	C658.990601,93.109673 662.674194,95.319221 662.567505,97.327370 
	C662.390869,100.651367 659.228943,103.199051 655.201294,102.976410 
	C652.791443,102.843193 650.407471,102.191589 647.998962,102.094505 
	C643.543091,101.914879 644.429749,99.579613 645.621460,96.880760 
	C647.672729,92.235718 651.097534,90.164001 656.591187,90.990585 
z"/>
<path fill="#000000" opacity="1.000000" stroke="none" 
	d="
M546.180786,111.327621 
	C549.230164,110.498802 552.014404,109.902908 554.820007,109.435349 
	C555.980713,109.241913 557.265259,109.045876 558.352661,109.351723 
	C559.646118,109.715530 561.739258,110.500427 561.838684,111.306206 
	C562.406860,115.908333 560.447510,119.682549 556.065308,121.206947 
	C553.005127,122.271500 549.721558,123.359413 546.404297,120.252861 
	C543.046448,117.108353 543.772949,114.615639 546.180786,111.327621 
z"/>
<path fill="#000000" opacity="1.000000" stroke="none" 
	d="
M607.766785,102.545471 
	C604.852783,107.432579 600.415100,107.301559 596.079834,106.825142 
	C595.267090,106.735832 594.130798,104.739769 594.064941,103.571678 
	C593.822998,99.280739 593.969055,94.967926 593.969055,90.401787 
	C598.654480,88.770515 603.750488,88.807076 606.848938,91.952705 
	C608.736877,93.869408 607.692688,98.674301 607.766785,102.545471 
z"/>
<path fill="#000000" opacity="1.000000" stroke="none" 
	d="
M563.978271,171.811020 
	C561.302124,176.880508 557.026672,174.351898 552.808838,175.158020 
	C553.681213,171.588852 551.157532,167.299850 555.898743,166.139191 
	C561.549438,164.755875 563.492554,166.386017 563.978271,171.811020 
z"/>
<path fill="#000000" opacity="1.000000" stroke="none" 
	d="
M562.798462,158.020340 
	C562.632690,158.068176 562.466919,158.115997 561.967346,158.539841 
	C561.073730,159.240280 560.513916,159.564713 559.954163,159.889145 
	C557.940979,159.914520 555.927795,159.939896 553.457764,159.497528 
	C552.929138,153.189545 552.674988,151.320633 560.048828,152.126617 
	C560.793030,152.360138 561.537292,152.593658 562.640442,153.346985 
	C562.932434,155.251312 562.865479,156.635818 562.798462,158.020340 
z"/>
<path fill="#F8F9FA" opacity="1.000000" stroke="none" 
	d="
M559.958130,151.735931 
	C552.674988,151.320633 552.929138,153.189545 553.028564,159.452057 
	C552.649170,160.084900 552.242126,160.295502 551.835083,160.506104 
	C551.813293,157.352051 551.791504,154.197998 551.769714,151.043961 
	C554.468994,151.144379 557.168213,151.244797 559.958130,151.735931 
z"/>
<path fill="#F8F9FA" opacity="1.000000" stroke="none" 
	d="
M563.174805,157.957184 
	C562.865479,156.635818 562.932434,155.251312 562.939270,153.453796 
	C566.171204,154.233765 565.514465,155.973450 563.174805,157.957184 
z"/>
<path fill="#F8F9FA" opacity="1.000000" stroke="none" 
	d="
M560.135498,160.141846 
	C560.513916,159.564713 561.073730,159.240280 561.867676,158.778625 
	C562.362122,159.052612 562.622498,159.463821 562.882812,159.875031 
	C562.027527,160.048187 561.172180,160.221359 560.135498,160.141846 
z"/>
<path fill="#000000" opacity="1.000000" stroke="none" 
	d="
M698.194214,170.458694 
	C698.367188,167.851608 698.321411,165.486008 699.139526,163.471252 
	C699.708191,162.071060 701.287170,160.628387 702.730896,160.140900 
	C704.981262,159.381012 707.543579,159.909195 707.865356,162.814270 
	C708.240417,166.200256 708.451538,169.760101 707.746460,173.031693 
	C707.472839,174.301224 704.085938,176.124298 702.853149,175.675201 
	C701.008972,175.003387 699.814819,172.547165 698.194214,170.458694 
z"/>
<path fill="#000000" opacity="1.000000" stroke="none" 
	d="
M589.468567,175.813019 
	C587.120972,175.481491 584.983154,175.299545 583.329773,174.308914 
	C582.853394,174.023499 583.339111,170.396255 584.134155,170.056335 
	C586.354553,169.107010 588.967773,169.076675 593.156921,168.406738 
	C591.669189,171.680023 590.765930,173.667480 589.468567,175.813019 
z"/>
</svg>